<?xml version="1.0" standalone="no"?>
<!DOCTYPE svg PUBLIC "-//W3C//DTD SVG 20010904//EN"
 "http://www.w3.org/TR/2001/REC-SVG-20010904/DTD/svg10.dtd">
<svg version="1.0" xmlns="http://www.w3.org/2000/svg"
 width="200.000000pt" height="200.000000pt" viewBox="0 0 200.000000 200.000000"
 preserveAspectRatio="xMidYMid meet">
<metadata>
Created by potrace 1.11, written by Peter Selinger 2001-2013
</metadata>
<g transform="translate(0.000000,200.000000) scale(0.100000,-0.100000)"
fill="#000000" stroke="none">
<path d="M646 1973 c-24 -6 -34 -14 -117 -93 -64 -60 -71 -71 -89 -136 l-19
-72 48 -113 c27 -63 54 -133 60 -156 6 -23 22 -55 34 -70 12 -15 31 -46 42
-68 11 -22 22 -42 25 -45 53 -55 74 -84 81 -112 l9 -33 -4 35 c-3 19 -8 44
-12 55 -15 39 26 -6 48 -52 23 -50 37 -61 49 -42 12 20 126 154 175 206 72 75
100 50 39 -36 -19 -26 -35 -52 -35 -57 0 -4 -17 -25 -37 -46 -20 -21 -32 -38
-25 -38 17 0 48 33 83 90 17 28 35 50 40 50 5 0 9 9 9 19 0 10 7 21 15 25 10
4 15 20 15 50 0 32 5 48 18 55 15 9 15 10 0 11 -9 0 -21 14 -27 31 -14 41 -14
72 0 63 6 -3 8 -15 6 -26 -5 -16 -3 -17 9 -7 21 17 13 52 -14 64 -18 8 -21 15
-16 35 18 62 -18 187 -69 238 -63 64 -160 142 -176 142 -9 0 -33 9 -54 20 -35
19 -70 23 -111 13z m242 -208 c19 -32 17 -30 67 -96 42 -54 85 -156 85 -200 0
-17 -9 -42 -20 -56 -19 -25 -20 -25 -20 -4 0 22 -7 25 -50 22 -14 0 -42 6 -63
14 -48 19 -47 19 -44 -7 2 -21 -3 -23 -50 -26 -57 -3 -56 -4 -68 78 -10 73
-17 102 -22 96 -3 -2 -16 -1 -29 4 -18 7 -24 6 -24 -3 0 -7 -17 -19 -37 -27
-21 -8 -41 -16 -44 -18 -4 -2 -9 4 -13 13 -4 11 -2 14 7 10 6 -4 1 2 -12 13
-17 14 -22 25 -16 41 3 12 11 19 16 16 5 -4 10 4 10 17 1 17 3 18 6 6 7 -29
23 -20 23 12 0 29 15 38 53 31 5 -1 6 3 3 8 -8 13 61 84 74 76 5 -3 10 -1 10
5 0 7 24 10 71 8 66 -3 71 -5 87 -33z m-194 -341 c4 -9 0 -27 -9 -40 -19 -29
-71 -58 -80 -44 -4 6 -11 8 -16 5 -16 -11 -10 7 9 22 9 8 11 12 5 8 -8 -4 -13
1 -13 14 0 15 9 22 35 27 19 3 38 10 41 15 8 14 21 11 28 -7z m295 -47 l0 -22
-11 23 c-6 12 -15 22 -20 22 -4 0 -8 5 -8 10 0 7 6 7 20 0 11 -6 20 -20 19
-33z m-95 -66 c8 -13 -81 -54 -101 -47 -19 8 -19 8 32 35 43 23 61 26 69 12z
m29 -38 c-10 -30 -35 -53 -57 -53 -20 1 -20 1 2 13 12 7 29 23 38 35 18 26 26
28 17 5z m-86 -59 c-3 -3 -12 -4 -19 -1 -8 3 -5 6 6 6 11 1 17 -2 13 -5z"/>
<path d="M839 1655 c-19 -5 -48 -19 -64 -29 -16 -11 -35 -19 -42 -19 -7 0 -13
-6 -13 -14 0 -7 4 -13 9 -13 5 0 26 -16 47 -35 49 -45 95 -47 147 -7 35 26 48
52 27 52 -5 0 -7 7 -4 15 4 8 2 15 -4 15 -5 0 -12 8 -15 19 -6 23 -42 30 -88
16z m71 -55 c10 -6 2 -7 -25 -3 -49 7 -58 13 -19 13 16 0 36 -5 44 -10z"/>
<path d="M1080 1594 c0 -19 24 -84 32 -84 11 0 10 21 -3 59 -9 27 -29 44 -29
25z"/>
<path d="M1094 1174 c17 -45 18 -64 1 -70 -11 -5 -15 -14 -11 -30 4 -13 -1
-51 -10 -84 -14 -48 -20 -58 -31 -49 -7 6 -13 18 -13 25 0 21 -33 17 -48 -6
-7 -11 -16 -20 -21 -20 -11 0 -8 46 2 57 4 3 7 12 7 20 0 11 -5 11 -20 3 -11
-6 -20 -16 -20 -23 0 -7 -9 -18 -19 -24 -11 -7 -22 -23 -24 -35 -3 -13 -5 -8
-4 12 2 25 -2 35 -13 35 -8 0 -16 -10 -18 -23 -2 -12 -8 -20 -13 -16 -6 3 -19
-4 -30 -17 -10 -12 -21 -20 -24 -17 -3 3 6 17 20 32 22 24 23 29 11 42 -8 8
-19 14 -25 14 -15 0 -14 23 2 40 6 8 2 6 -10 -4 -13 -11 -23 -25 -23 -31 0 -7
-6 -18 -14 -24 -12 -10 -15 -6 -19 26 -3 28 -4 25 -3 -12 l1 -50 -60 -40 c-33
-22 -80 -47 -105 -54 -184 -57 -219 -110 -226 -341 -6 -164 -21 -262 -53 -343
-6 -16 -11 -60 -11 -98 l0 -69 820 0 820 0 0 58 c0 50 -14 145 -40 277 -4 22
-19 83 -34 135 -14 52 -34 138 -45 191 -48 233 -107 299 -306 340 -49 10 -115
28 -145 40 -30 11 -70 26 -89 32 -18 6 -37 20 -41 31 -12 31 -52 65 -89 76
-28 8 -32 7 -27 -6z m-340 -270 c6 -27 11 -34 23 -30 11 4 14 2 10 -9 -4 -8
-1 -17 4 -21 7 -4 7 -10 0 -17 -22 -22 -10 -28 19 -10 26 15 32 16 40 3 5 -8
6 -18 4 -22 -3 -4 4 -8 15 -8 11 0 48 30 87 70 71 72 101 92 65 41 -12 -16
-21 -33 -21 -39 0 -5 -11 -18 -25 -28 -14 -10 -25 -22 -25 -27 0 -4 -16 -26
-36 -47 -20 -22 -43 -49 -51 -60 -19 -27 -53 -27 -53 1 0 11 -4 17 -10 14 -5
-3 -7 0 -4 8 3 10 -4 14 -25 15 -17 0 -37 5 -46 9 -14 8 -13 12 5 33 23 26 24
30 10 30 -17 0 -42 -60 -31 -74 8 -10 3 -21 -19 -44 -17 -18 -30 -30 -30 -28
0 19 46 127 65 152 23 30 31 84 13 84 -4 0 -8 9 -8 20 0 34 17 22 24 -16z m96
17 c0 -6 -5 -13 -10 -16 -6 -4 -8 -10 -5 -14 2 -5 -5 -17 -16 -27 -20 -18 -21
-18 -11 6 6 14 13 33 16 43 6 18 26 24 26 8z m20 -31 c0 -5 -5 -10 -11 -10 -5
0 -7 5 -4 10 3 6 8 10 11 10 2 0 4 -4 4 -10z m155 -29 c-8 -17 -18 -31 -21
-31 -3 0 -4 3 -2 8 21 43 32 61 35 58 3 -2 -3 -18 -12 -35z m-111 4 c-4 -8
-10 -15 -15 -15 -4 0 -6 7 -3 15 4 8 10 15 15 15 4 0 6 -7 3 -15z m-201 -198
c20 12 47 10 47 -3 0 -7 6 -19 13 -26 8 -7 16 -20 20 -28 5 -13 6 -13 7 0 1
19 73 75 78 60 2 -6 1 -18 -3 -28 -4 -9 -9 -30 -10 -47 -2 -16 -20 -100 -40
-185 -40 -172 -42 -181 -44 -228 -1 -21 -5 -31 -12 -26 -6 3 -10 -1 -9 -12 4
-38 0 -54 -16 -54 -8 0 -12 -5 -9 -10 4 -6 11 -8 16 -5 5 4 9 2 9 -4 0 -17
-37 -22 -84 -10 -76 19 -228 159 -225 208 0 10 2 12 6 3 2 -6 9 -10 13 -7 5 3
7 -4 5 -15 -2 -13 1 -20 11 -20 10 0 13 10 12 33 -2 21 1 31 10 30 6 -2 12 4
12 13 0 11 6 14 20 9 18 -6 20 -3 15 18 -4 15 -1 30 9 40 9 9 15 22 14 29 -2
7 2 12 8 11 6 -1 11 11 12 27 1 34 10 53 21 45 5 -2 6 7 3 22 l-5 26 -14 -27
c-26 -49 -21 -26 9 47 17 39 35 74 39 75 5 2 7 8 3 13 -3 5 -2 9 3 8 22 -4 33
3 34 19 0 10 3 12 6 4 2 -6 10 -9 16 -5z m-193 -268 c0 -6 -7 -8 -16 -5 -8 3
-12 2 -9 -4 10 -15 -29 -12 -51 5 -18 13 -15 14 29 15 28 0 47 -4 47 -11z m14
-47 c2 -4 -4 -8 -14 -8 -10 0 -16 4 -14 8 3 4 9 8 14 8 5 0 11 -4 14 -8z m-64
-35 c-14 -12 -36 -23 -50 -24 -14 -1 -37 -4 -52 -8 -18 -5 -28 -3 -28 3 0 6
28 20 63 31 85 26 97 26 67 -2z m-50 -57 c-6 -11 -18 -20 -26 -20 -8 0 -13 -4
-10 -8 6 -11 -21 -52 -35 -52 -18 0 -9 28 12 33 12 3 18 10 15 15 -3 6 -15 8
-26 5 -41 -11 -18 14 28 29 26 9 48 17 50 17 1 1 -2 -8 -8 -19z"/>
<path d="M638 595 c-3 -11 -9 -29 -13 -40 -3 -11 1 -7 10 8 9 16 15 33 12 40
-2 6 -6 3 -9 -8z"/>
<path d="M517 204 c-7 -12 1 -24 28 -44 19 -14 19 -14 4 5 -9 11 -18 27 -21
35 -2 8 -7 10 -11 4z"/>
<path d="M573 145 c0 -7 10 -18 21 -25 18 -12 19 -11 9 2 -7 8 -10 17 -7 20 2
3 -1 8 -9 11 -7 3 -14 -1 -14 -8z"/>
<path d="M1022 1118 c-41 -62 -44 -68 -33 -68 11 0 52 60 64 93 11 28 0 19
-31 -25z"/>
<path d="M1047 1042 c-23 -56 -21 -64 4 -25 11 18 19 40 17 50 -2 12 -9 4 -21
-25z"/>
<path d="M830 1055 c-11 -13 -10 -14 4 -9 9 3 16 10 16 15 0 13 -6 11 -20 -6z"/>
<path d="M872 1030 c0 -17 3 -30 7 -30 10 0 11 49 1 55 -4 2 -7 -9 -8 -25z"/>
<path d="M1928 1043 c6 -2 18 -2 25 0 6 3 1 5 -13 5 -14 0 -19 -2 -12 -5z"/>
<path d="M1978 1043 c7 -3 16 -2 19 1 4 3 -2 6 -13 5 -11 0 -14 -3 -6 -6z"/>
</g>
</svg>
