<?xml version="1.0" standalone="no"?>
<!DOCTYPE svg PUBLIC "-//W3C//DTD SVG 20010904//EN"
 "http://www.w3.org/TR/2001/REC-SVG-20010904/DTD/svg10.dtd">
<svg version="1.0" xmlns="http://www.w3.org/2000/svg"
 width="256.000000pt" height="256.000000pt" viewBox="0 0 256.000000 256.000000"
 preserveAspectRatio="xMidYMid meet">
<metadata>
Created by potrace 1.11, written by Peter Selinger 2001-2013
</metadata>
<g transform="translate(0.000000,256.000000) scale(0.100000,-0.100000)"
fill="#000000" stroke="none">
<path d="M2419 2449 c20 -8 22 -14 17 -47 -3 -20 -10 -83 -16 -139 -14 -134
-39 -209 -69 -206 -24 3 -25 -3 -7 -37 12 -21 11 -28 -8 -55 -11 -16 -22 -37
-24 -45 -5 -19 -103 -161 -161 -230 -121 -146 -264 -272 -373 -330 -32 -17
-58 -35 -58 -40 0 -13 -29 -1 -68 29 -26 19 -35 22 -42 12 -4 -8 -12 -11 -18
-7 -9 5 -59 -26 -73 -47 -3 -4 -18 -5 -32 -2 -21 6 -38 -1 -84 -35 -32 -23
-128 -82 -213 -132 -85 -50 -177 -104 -203 -119 -27 -16 -52 -29 -56 -29 -12
0 -61 47 -61 59 0 24 79 107 115 120 48 17 151 83 229 147 82 67 209 211 200
227 -10 15 19 -6 64 -47 17 -16 32 -25 32 -19 0 12 -77 130 -91 138 -16 11 -9
29 19 50 22 16 48 21 147 25 101 5 129 10 177 32 117 54 192 135 228 245 41
125 12 229 -76 272 -39 20 -57 23 -123 19 -107 -6 -208 -55 -300 -146 -75 -74
-112 -141 -119 -213 -4 -45 -8 -50 -57 -82 -36 -24 -56 -32 -66 -26 -41 26
-38 3 8 -56 l36 -48 -27 7 c-27 7 -24 8 -212 -137 -12 -10 -25 -14 -28 -9 -8
14 13 81 50 154 19 37 34 72 34 78 0 16 -35 12 -56 -8 -48 -44 -150 -117 -193
-137 -96 -45 -210 -55 -352 -29 -29 5 -39 2 -50 -13 -8 -11 -46 -55 -86 -99
-39 -43 -82 -92 -94 -109 -13 -16 -30 -36 -37 -44 -8 -8 -25 -33 -39 -55 -14
-23 -29 -43 -32 -46 -8 -6 -71 -108 -71 -115 0 -3 -13 -27 -30 -53 -16 -27
-30 -55 -30 -63 0 -8 9 4 21 26 12 22 32 54 45 72 13 17 24 36 24 42 0 6 4 11
8 11 4 0 16 14 26 30 12 22 23 29 35 25 10 -3 35 -6 55 -7 34 -1 36 -3 36 -37
l0 -36 20 33 c16 26 24 31 34 23 7 -6 21 -12 32 -14 10 -2 32 -9 47 -15 16 -7
34 -12 42 -12 7 0 15 -3 17 -7 7 -17 67 -43 83 -37 9 4 28 18 42 32 23 23 29
24 101 18 42 -4 79 -9 83 -12 10 -6 -6 -59 -17 -57 -5 1 -16 4 -24 8 -10 3
-35 -12 -68 -43 -48 -45 -52 -52 -43 -75 14 -35 34 -60 119 -143 39 -39 72
-75 72 -81 0 -6 -17 -26 -38 -44 -36 -32 -120 -158 -141 -210 -5 -13 -30 -53
-55 -88 -25 -36 -46 -69 -46 -74 0 -8 114 83 200 159 19 17 60 53 90 80 89 80
146 124 159 124 14 0 14 -23 -1 -38 -6 -6 -9 -15 -5 -19 7 -6 84 69 119 117
17 22 17 25 1 42 -15 17 -15 20 -3 28 8 6 18 10 21 10 12 0 28 -26 29 -45 0
-11 3 -42 6 -68 7 -58 -2 -70 -98 -133 -66 -43 -79 -59 -58 -80 14 -14 29
-149 31 -283 1 -108 2 -109 23 -102 79 31 269 163 398 278 47 43 98 88 113
101 19 15 25 28 20 40 -3 9 -9 53 -12 97 -11 169 51 302 193 411 42 33 85 63
95 69 11 5 19 16 19 23 0 7 4 11 8 8 13 -8 176 155 255 255 245 305 369 597
371 869 1 82 -2 100 -22 131 -22 36 -46 49 -87 48 -18 0 -17 -1 4 -10z m-779
-303 c0 -1 -27 -24 -60 -50 -60 -47 -85 -51 -32 -5 47 42 92 69 92 55z m340
-157 c0 -32 -7 -35 -35 -15 -17 12 -18 17 -7 41 10 22 15 25 27 15 8 -7 15
-25 15 -41z m390 -44 c-7 -8 -16 -15 -21 -15 -5 0 -9 7 -9 15 0 9 9 15 21 15
18 0 19 -2 9 -15z m-1026 -199 c-4 -9 -14 -16 -23 -14 -23 5 -26 35 -4 40 24
6 35 -5 27 -26z m450 -471 c-4 -8 -10 -15 -14 -15 -4 0 -10 7 -14 15 -4 10 1
15 14 15 13 0 18 -5 14 -15z m-477 -215 c-30 -40 -40 -48 -53 -43 -20 8 -17
22 12 60 24 32 27 33 39 16 10 -13 11 -22 2 -33z"/>
<path d="M1925 2404 c-18 -13 -18 -14 8 -14 15 0 27 4 27 9 0 17 -15 19 -35 5z"/>
<path d="M2143 2359 c-35 -22 -35 -37 -1 -58 20 -13 24 -11 48 18 15 17 27 38
27 46 0 21 -36 18 -74 -6z"/>
<path d="M2025 2345 c35 -36 32 -53 -10 -57 -32 -3 -34 -4 -16 -15 16 -10 23
-8 43 11 l23 22 38 -29 c21 -16 40 -27 43 -24 12 12 -113 117 -140 117 -4 0 5
-11 19 -25z"/>
<path d="M2200 2110 c0 -5 5 -10 10 -10 6 0 10 5 10 10 0 6 -4 10 -10 10 -5 0
-10 -4 -10 -10z"/>
<path d="M1201 1892 c-1 -7 -12 -17 -26 -22 -27 -10 -34 -40 -10 -40 8 0 15 7
15 15 0 7 7 18 16 23 9 5 14 15 11 23 -4 10 -6 10 -6 1z"/>
<path d="M1570 1495 c-8 -9 -8 -15 -2 -15 12 0 26 19 19 26 -2 2 -10 -2 -17
-11z"/>
<path d="M272 580 c-12 -12 -22 -31 -21 -43 0 -22 0 -22 10 1 5 13 19 32 32
43 12 10 17 18 11 19 -5 0 -20 -9 -32 -20z"/>
<path d="M186 424 c-17 -17 -20 -42 -7 -62 6 -10 10 -10 21 3 7 9 21 13 31 10
14 -5 19 -1 19 14 0 50 -32 68 -64 35z"/>
<path d="M676 305 c-11 -8 -15 -15 -9 -15 6 0 16 7 23 15 16 19 11 19 -14 0z"/>
<path d="M167 271 c-9 -16 -17 -41 -17 -56 l0 -27 25 30 c18 22 22 35 17 56
l-7 27 -18 -30z"/>
<path d="M444 275 c3 -8 9 -22 12 -30 8 -21 -33 -34 -71 -24 -51 15 -59 10
-24 -15 29 -20 36 -21 50 -10 8 8 23 14 32 14 20 0 107 41 107 51 0 3 -6 12
-14 18 -16 14 -49 4 -39 -13 3 -6 -3 -3 -14 7 -24 21 -47 23 -39 2z"/>
<path d="M598 263 c7 -3 16 -2 19 1 4 3 -2 6 -13 5 -11 0 -14 -3 -6 -6z"/>
<path d="M260 240 c0 -21 16 -29 43 -22 25 6 21 16 -13 29 -27 10 -30 9 -30
-7z"/>
<path d="M537 169 c7 -7 15 -10 18 -7 3 3 -2 9 -12 12 -14 6 -15 5 -6 -5z"/>
<path d="M247 163 c-15 -2 -25 -8 -23 -12 7 -10 66 -1 66 10 0 5 -3 8 -7 8 -5
-1 -20 -4 -36 -6z"/>
<path d="M134 129 c-20 -40 -15 -44 24 -16 29 22 30 24 12 35 -17 10 -22 8
-36 -19z"/>
</g>
</svg>
