<svg version="1.1" xmlns="http://www.w3.org/2000/svg" viewBox="0 0 2207.5 3341.6701027174668" width="2207.5" height="3341.6701027174668">
  <!-- svg-source:excalidraw -->
  
  <defs>
    <style class="style-fonts">
      @font-face {
        font-family: "Virgil";
        src: url("https://excalidraw.com/Virgil.woff2");
      }
      @font-face {
        font-family: "Cascadia";
        src: url("https://excalidraw.com/Cascadia.woff2");
      }
    </style>
    
  </defs>
  <rect x="0" y="0" width="2207.5" height="3341.6701027174668" fill="#ffffff"></rect><g stroke-linecap="round" transform="translate(1189.541581020083 2831.4749860327993) rotate(0 337.48587386540476 95.96449466783474)"><path d="M30 1.4 L643.81 1.29 L655.52 3.12 L667.66 7.27 L670.68 10.97 L675.93 23.24 L673.29 160.22 L671.2 174.47 L670.69 180.39 L661.52 187.51 L656.17 190.31 L641.93 193.2 L32.5 193.91 L19.93 188.49 L11.86 186.18 L3.45 178.37 L-0.52 166.59 L2.42 24.43 L2.51 19.27 L9.76 7.57 L19.09 0.62 L30.34 -1.56" stroke="none" stroke-width="0" fill="#ced4da"></path><path d="M32 0 M32 0 C210.85 1.78, 387.97 2.66, 642.97 0 M32 0 C240.45 -0.88, 448.95 -1.04, 642.97 0 M642.97 0 C663.51 -1.66, 674.24 10.62, 674.97 32 M642.97 0 C663.56 -1.6, 675.22 9.91, 674.97 32 M674.97 32 C673.95 68.17, 675.14 107.36, 674.97 159.93 M674.97 32 C676.25 65.01, 675.7 97.27, 674.97 159.93 M674.97 159.93 C676.73 180.52, 664.15 193.53, 642.97 191.93 M674.97 159.93 C674.71 180.54, 662.91 191.97, 642.97 191.93 M642.97 191.93 C458.98 192.94, 277.06 192.18, 32 191.93 M642.97 191.93 C483.94 194.27, 325.24 194.08, 32 191.93 M32 191.93 C11.77 191.2, 1.11 180.97, 0 159.93 M32 191.93 C12.83 194.06, -1.51 180.16, 0 159.93 M0 159.93 C2.38 126.5, -1.07 92.07, 0 32 M0 159.93 C-1.3 120.77, 0.56 83.91, 0 32 M0 32 C1.29 9.36, 9.59 0.47, 32 0 M0 32 C0.56 12.9, 9.35 -0.28, 32 0" stroke="#868e96" stroke-width="2" fill="none"></path></g><g transform="translate(160.33847713283654 2937.1003358685366) rotate(0 119.15054707080137 56.03295997383657)" stroke="none"><path d="M-0.86 -1.85 L-0.14 -1.86 L4.64 -4.34 L7.44 -5.2 L12.64 -7.59 L16.71 -11.65 L22.22 -18.28 L29.69 -23.81 L40.14 -29.73 L50.52 -33.2 L55.11 -35.13 L63.55 -33.49 L68.8 -34.13 L68.14 -36.26 L73.59 -37.76 L78.06 -36.44 L83.84 -37.2 L89.29 -39.41 L93.42 -40.52 L98.97 -41.86 L103.61 -42.7 L111.89 -42.7 L116.09 -40.74 L121.8 -42.84 L129.36 -42.44 L137.62 -41.54 L145.03 -41.74 L150.29 -41.25 L155.24 -42.05 L160.08 -42.87 L167.84 -42.28 L168.77 -39.77 L170.92 -42.78 L177.26 -37.22 L188.12 -35.52 L193 -34.12 L194.31 -36.23 L195.78 -31.94 L197.62 -29.96 L197.3 -25.96 L198.75 -26.66 L201.17 -25.74 L205.64 -18.89 L212.02 -19.04 L216.47 -13.68 L214.52 -11.67 L214.39 -10.97 L215.36 -8.74 L214.53 -1.84 L219.19 3.15 L222 8.98 L222.78 8.36 L225.85 13.98 L230.13 14.93 L230.99 17.82 L232.22 21.29 L230.53 21.22 L229.57 26.97 L230.6 34.32 L235.97 39.34 L235.87 48.02 L236.87 54.25 L235.51 62.24 L237.54 78.43 L239.4 81.26 L238.41 88.04 L236.54 95.44 L237.38 102.48 L236.87 121.74 L234.38 128.88 L234.48 131.98 L235.57 134.72 L232.54 137.02 L232.21 138.11 L233.33 141.09 L226.12 144.08 L225.4 142.66 L214.49 148.33 L208.26 150.17 L203.23 153.08 L196.56 153.7 L192.63 153.95 L185.74 151.34 L180.52 155.24 L174.94 150.52 L172.84 153.64 L168.41 153.82 L165.23 153.21 L160.21 150.46 L156.54 151.7 L151.97 151.48 L140.49 151.68 L128.52 146.6 L120.45 141.64 L116.03 132.91 L113.95 124.93 L113.58 123.66 L109.18 123.46 L107.08 121.31 L105.11 126.19 L100.84 125.7 L95.87 128.76 L85.85 129.34 L80.56 129.18 L76.52 128.4 L72.23 128.03 L58.91 120.77 L51.32 122.7 L45.93 121.43 L42.86 118.67 L39.05 119.44 L33.08 119.97 L30.37 119.7 L29.64 114.71 L21.42 114.47 L20.56 107.96 L14.69 105.13 L15.31 98.06 L12.8 95.9 L11.57 86.99 L11.6 80.63 L14.43 78.31 L12.62 75.9 L12.96 70.78 L12.81 61.47 L11.33 57.56 L12.22 54.25 L9.82 50.23 L13.14 42.37 L11.97 40.12 L14.16 39.1 L14.58 38.61 L10.92 32.9 L12.55 31.52 L13.93 33.81 L12.61 28.98 L10.79 26.5 L10.32 28.18 L10.52 25.35 L6.21 23.01 L4.66 23.41 L6.92 21.03 L6.16 19.53 L7.19 17.33 L5.21 17.8 L5.02 16.39 L5.4 14.74 L6.26 14.35 L2.17 13.5 L5.55 10.19 L3.04 5.79 L2.66 5.11 L4.65 5.68 L3.47 5.73 L3.91 3.94 L-0.75 1.03" stroke="none" stroke-width="0" fill="#ced4da" fill-rule="evenodd"></path><path fill="#1e1e1e" d="M -1.69,-3.39 Q -1.69,-3.39 0.45,-4.62 2.60,-5.86 4.63,-7.62 6.67,-9.38 8.67,-11.30 10.68,-13.21 13.66,-15.30 16.64,-17.38 20.16,-19.56 23.69,-21.73 27.80,-24.41 31.91,-27.08 36.46,-29.39 41.01,-31.70 45.23,-33.41 49.46,-35.11 52.90,-36.05 56.33,-36.99 59.13,-37.81 61.92,-38.63 64.00,-39.13 66.08,-39.62 70.09,-40.41 74.10,-41.19 76.44,-41.50 78.79,-41.80 83.57,-43.06 88.36,-44.32 91.87,-44.42 95.39,-44.52 97.59,-44.97 99.79,-45.42 102.97,-45.63 106.15,-45.84 108.96,-45.94 111.76,-46.05 114.44,-46.11 117.12,-46.18 120.85,-46.02 124.59,-45.87 128.76,-45.63 132.94,-45.39 136.57,-45.34 140.19,-45.29 143.21,-45.35 146.24,-45.42 148.63,-45.54 151.03,-45.65 153.90,-45.70 156.77,-45.75 159.47,-45.81 162.17,-45.87 166.01,-46.07 169.85,-46.27 172.89,-45.45 175.94,-44.64 179.17,-43.87 182.41,-43.11 186.08,-42.29 189.76,-41.47 192.19,-40.98 194.63,-40.50 196.65,-38.65 198.67,-36.80 200.37,-34.12 202.07,-31.44 204.54,-28.53 207.00,-25.62 211.12,-23.28 215.25,-20.94 217.50,-18.11 219.76,-15.28 220.83,-10.94 221.90,-6.60 223.52,-2.43 225.13,1.73 226.69,4.87 228.24,8.02 230.65,10.13 233.06,12.24 234.65,15.70 236.25,19.16 236.39,21.53 236.54,23.89 236.71,27.10 236.89,30.32 237.60,32.78 238.32,35.25 239.06,38.07 239.80,40.89 240.39,44.48 240.98,48.08 241.06,52.45 241.15,56.82 241.02,62.73 240.89,68.64 241.19,72.42 241.48,76.20 241.79,79.06 242.09,81.92 242.17,85.41 242.25,88.90 242.09,93.34 241.93,97.79 241.06,105.40 240.18,113.00 239.39,117.71 238.59,122.41 238.49,125.08 238.40,127.75 238.58,131.45 238.76,135.16 237.70,138.41 236.64,141.66 234.88,143.41 233.12,145.17 231.02,146.39 228.92,147.62 225.11,149.20 221.31,150.79 218.23,152.27 215.16,153.75 211.70,154.87 208.23,155.99 205.08,156.55 201.93,157.12 199.46,157.42 197.00,157.72 194.05,157.83 191.09,157.94 187.99,157.96 184.90,157.98 181.46,157.58 178.02,157.18 174.48,157.18 170.94,157.18 166.45,157.24 161.96,157.29 157.98,157.39 154.00,157.49 150.45,157.31 146.90,157.14 140.82,155.63 134.74,154.12 130.24,150.88 125.74,147.64 122.38,143.44 119.03,139.24 116.61,135.61 114.19,131.98 112.60,129.82 111.01,127.65 107.76,129.05 104.51,130.45 102.10,131.61 99.69,132.76 95.77,133.39 91.84,134.01 88.74,134.25 85.65,134.50 82.53,133.84 79.42,133.18 76.97,132.59 74.53,131.99 70.12,130.28 65.70,128.57 61.49,127.44 57.28,126.31 53.88,125.54 50.48,124.76 48.10,124.59 45.72,124.42 43.30,124.00 40.88,123.58 36.98,123.51 33.09,123.45 30.64,122.51 28.20,121.57 23.37,118.22 18.55,114.87 16.60,112.85 14.66,110.83 13.02,107.91 11.38,104.99 10.36,102.70 9.34,100.41 8.80,97.02 8.27,93.64 8.14,90.40 8.01,87.17 7.94,84.34 7.87,81.51 7.16,78.26 6.45,75.01 6.55,71.15 6.65,67.28 6.60,64.61 6.55,61.94 6.48,59.69 6.40,57.43 6.41,52.26 6.41,47.09 6.38,44.61 6.36,42.13 6.78,39.81 7.20,37.49 7.08,35.33 6.96,33.17 5.44,31.34 3.91,29.51 2.15,26.93 0.39,24.35 0.17,22.15 -0.03,19.94 -0.73,17.89 -1.43,15.84 -2.16,12.77 -2.89,9.69 -3.00,7.30 -3.10,4.91 -3.09,5.78 -3.07,6.65 -3.77,5.76 -4.47,4.88 -4.85,3.81 -5.23,2.74 -5.25,1.61 -5.26,0.48 -4.92,-0.58 -4.58,-1.66 -3.91,-2.57 -3.24,-3.48 -2.31,-4.13 -1.39,-4.78 -0.30,-5.10 0.77,-5.42 1.90,-5.38 3.03,-5.34 4.09,-4.93 5.14,-4.53 6.02,-3.81 6.89,-3.10 7.49,-2.14 8.09,-1.18 8.35,-0.08 8.61,1.01 8.51,2.14 8.40,3.26 7.94,4.30 7.48,5.33 6.72,6.16 5.96,7.00 4.97,7.54 3.98,8.09 2.86,8.29 1.75,8.49 0.63,8.32 -0.48,8.16 -1.48,7.65 -2.49,7.13 -3.28,6.32 -4.07,5.52 -4.56,4.50 -5.05,3.48 -5.19,2.36 -5.33,1.24 -5.11,0.13 -4.88,-0.97 -4.32,-1.95 -3.75,-2.93 -2.90,-3.67 -2.05,-4.42 -1.01,-4.85 0.03,-5.29 1.16,-5.37 2.28,-5.45 3.38,-5.16 4.47,-4.88 5.42,-4.26 6.36,-3.64 6.36,-3.64 6.36,-3.64 8.60,0.58 10.85,4.80 10.58,6.98 10.32,9.16 11.01,12.13 11.71,15.11 11.72,17.87 11.73,20.62 14.03,23.46 16.33,26.31 17.49,28.79 18.64,31.28 18.54,34.00 18.45,36.73 17.64,39.53 16.82,42.33 16.80,44.70 16.78,47.08 16.79,52.23 16.81,57.37 16.77,59.60 16.72,61.82 16.73,64.45 16.74,67.08 17.04,71.77 17.33,76.47 17.71,78.85 18.08,81.23 18.15,83.93 18.22,86.63 18.62,91.54 19.02,96.45 20.54,100.14 22.06,103.82 25.13,107.37 28.20,110.92 30.54,111.75 32.88,112.58 35.17,113.40 37.47,114.21 42.14,115.17 46.81,116.13 49.52,116.63 52.24,117.12 55.58,117.90 58.93,118.68 63.63,119.47 68.33,120.26 72.69,121.32 77.04,122.38 81.10,123.73 85.15,125.07 87.80,124.90 90.45,124.73 93.09,124.36 95.73,124.00 98.30,122.84 100.87,121.68 103.18,120.80 105.50,119.91 107.95,119.40 110.41,118.89 113.84,121.24 117.27,123.60 118.49,125.83 119.71,128.07 122.16,131.33 124.62,134.58 127.50,137.85 130.38,141.12 133.59,143.27 136.79,145.42 141.86,146.14 146.94,146.85 150.47,146.68 154.01,146.50 158.01,146.61 162.01,146.72 164.44,146.77 166.86,146.81 170.80,147.08 174.74,147.34 176.91,147.60 179.07,147.86 181.94,148.17 184.80,148.48 187.81,148.44 190.83,148.39 193.54,148.35 196.25,148.30 198.40,148.23 200.56,148.17 203.04,147.86 205.53,147.56 208.35,146.65 211.18,145.74 214.19,144.17 217.21,142.60 222.02,140.05 226.82,137.49 228.54,136.16 230.26,134.82 230.79,130.91 231.32,127.00 231.80,124.24 232.28,121.49 232.84,116.91 233.41,112.34 233.99,105.09 234.56,97.84 234.34,93.46 234.11,89.08 234.04,85.76 233.97,82.44 233.91,79.73 233.86,77.02 233.30,72.92 232.75,68.82 232.38,63.15 232.00,57.49 231.49,53.80 230.98,50.12 230.19,46.95 229.40,43.78 228.62,41.14 227.85,38.51 226.73,35.10 225.61,31.69 224.98,28.07 224.34,24.44 223.47,21.36 222.59,18.28 220.23,15.77 217.86,13.26 216.29,9.75 214.73,6.24 213.49,3.52 212.26,0.79 211.24,-2.29 210.22,-5.38 209.84,-8.07 209.46,-10.75 207.36,-12.71 205.26,-14.66 201.88,-16.50 198.50,-18.34 196.36,-21.12 194.22,-23.89 192.88,-26.41 191.53,-28.92 189.86,-30.77 188.19,-32.61 184.39,-33.12 180.59,-33.62 175.14,-34.89 169.70,-36.16 165.93,-36.36 162.17,-36.56 159.47,-36.62 156.77,-36.68 153.90,-36.73 151.03,-36.77 148.63,-36.89 146.24,-37.01 143.22,-37.07 140.20,-37.13 136.57,-37.07 132.95,-37.02 128.79,-36.77 124.62,-36.51 120.93,-36.33 117.24,-36.15 114.64,-36.15 112.04,-36.15 109.41,-36.10 106.77,-36.05 104.11,-35.89 101.46,-35.73 98.64,-35.31 95.83,-34.90 90.70,-34.51 85.57,-34.12 80.58,-33.19 75.60,-32.26 72.87,-31.90 70.15,-31.55 66.89,-31.52 63.63,-31.48 60.74,-30.94 57.84,-30.39 54.87,-29.87 51.90,-29.34 48.02,-27.60 44.15,-25.85 40.08,-23.54 36.01,-21.22 32.05,-18.23 28.09,-15.24 24.82,-12.81 21.56,-10.37 19.01,-8.59 16.47,-6.80 14.19,-4.83 11.91,-2.87 9.10,-0.72 6.28,1.42 3.99,2.40 1.69,3.39 1.26,3.54 0.83,3.69 0.37,3.74 -0.07,3.78 -0.52,3.72 -0.97,3.66 -1.40,3.49 -1.82,3.32 -2.19,3.05 -2.56,2.78 -2.86,2.43 -3.16,2.09 -3.36,1.68 -3.56,1.27 -3.67,0.82 -3.77,0.38 -3.76,-0.07 -3.75,-0.53 -3.63,-0.97 -3.51,-1.41 -3.29,-1.81 -3.07,-2.21 -2.76,-2.55 -2.45,-2.88 -2.07,-3.13 -1.69,-3.39 -1.69,-3.39 L -1.69,-3.39 Z"></path></g><g transform="translate(464.3333864161784 2910.049941398409) rotate(0 72.13438525367434 85.01552547754454)" stroke="none"><path d="M0.66 0.23 L2.84 0.03 L2.96 -0.68 L3.41 -0.75 L9.7 -3.4 L27.05 -6.59 L46.48 -9.05 L71.29 -8.36 L95.1 -11.91 L114.41 -13.16 L129.44 -12.77 L141.7 -13.36 L149.54 -13.15 L150.14 -10.99 L158.55 -13.47 L157.87 -11.95 L168.06 -11.05 L171.4 -9.46 L181.3 -3.25 L182.33 -2.81 L184.02 -2.76 L183.64 5.13 L187.26 13.01 L186.92 18.58 L189.45 28.11 L188.23 39.86 L188.55 52.19 L185.5 58.66 L184.22 64.52 L180.61 70.51 L179.78 75.5 L179.85 80.46 L177.26 81.49 L177.89 87.4 L177.35 91.69 L176.39 94.87 L176.87 97.78 L174.52 105.67 L175.01 113.45 L176.01 126.72 L171.38 134.33 L166.25 147.57 L159.96 161.71 L149.49 168.47 L138.6 173.69 L132.38 175.15 L122.23 176.9 L110.64 178.95 L100.91 182.14 L90.57 183.29 L80.1 182.24 L70.72 183.96 L61.77 183.31 L43.72 184 L39.74 183.54 L33.66 184.15 L24.67 180.4 L20.38 183.35 L20.87 180.43 L17.03 180.68 L14.35 178.71 L12.12 177.45 L4.07 178.42 L2.28 172.64 L-3.03 172.28 L-6.59 169.77 L-12.3 166.41 L-14.62 166.18 L-12.74 163.28 L-15.27 161.16 L-21.48 160.07 L-22.33 159.83 L-27.72 155.77 L-27.58 155.96 L-31.51 153.17 L-28.44 152.88 L-33.97 147.74 L-34.34 147 L-36.51 144.07 L-35.62 141.13 L-36.29 143.12 L-39.78 142.05 L-41.51 136.68 L-41.9 134.03 L-40.11 130.33 L-43.57 128.63 L-41.63 122.64 L-40.51 121.79 L-42.08 115.43 L-43.07 111.53 L-43.05 108.02 L-42.33 102.86 L-41.91 95.99 L-41.42 93.58 L-43.04 85.46 L-41.47 77.88 L-43.84 67.22 L-44.95 57.22 L-42.05 46.43 L-44.5 38.44 L-44.58 32.67 L-44.66 22.77 L-43.92 14.33 L-38.82 2.66 L-37.75 -4.99 L-36.15 -8.02 L-31.67 -8.07 L-30.71 -9.44 L-26.24 -8.99 L-23.28 -9.98 L-17.98 -10.8 L-9.85 -9.91 L-7.12 -11.75 L-8.84 -10.24 L-7.5 -9.27 L-9.29 -5.03 L-6.42 -5.12 L-1.53 -7.12 L0.52 -4.11 L1.05 -4.33 L-0.05 1.37" stroke="none" stroke-width="0" fill="#ced4da" fill-rule="evenodd"></path><path fill="#1e1e1e" d="M -1.00,-3.01 Q -1.00,-3.01 2.30,-4.20 5.60,-5.40 11.97,-6.92 18.35,-8.44 26.68,-9.81 35.02,-11.18 45.71,-11.74 56.41,-12.31 67.88,-13.27 79.35,-14.22 89.49,-14.62 99.63,-15.02 108.75,-15.18 117.88,-15.34 125.09,-15.40 132.30,-15.47 136.85,-15.49 141.40,-15.51 144.44,-15.73 147.48,-15.95 150.26,-16.14 153.04,-16.34 158.18,-15.84 163.31,-15.34 166.45,-14.28 169.58,-13.22 173.32,-11.91 177.05,-10.61 179.61,-9.81 182.17,-9.01 184.35,-7.46 186.53,-5.91 187.82,-2.66 189.11,0.57 189.97,4.14 190.83,7.71 191.33,10.98 191.84,14.26 191.98,17.96 192.12,21.65 191.97,27.30 191.83,32.94 191.32,38.05 190.81,43.15 190.16,47.90 189.52,52.66 188.91,56.59 188.31,60.51 186.88,64.35 185.46,68.19 184.68,70.80 183.90,73.42 183.28,76.88 182.65,80.35 182.21,82.65 181.76,84.95 181.66,88.76 181.56,92.57 181.59,97.12 181.62,101.68 181.58,104.66 181.53,107.65 181.22,112.63 180.90,117.61 179.50,123.10 178.11,128.60 175.51,134.36 172.91,140.13 169.53,146.59 166.15,153.05 161.55,158.60 156.95,164.16 152.62,167.70 148.29,171.24 143.58,173.22 138.88,175.19 133.85,176.36 128.82,177.54 124.22,178.72 119.62,179.91 113.96,181.52 108.31,183.12 102.74,183.84 97.16,184.56 92.20,184.86 87.23,185.15 82.52,185.27 77.81,185.39 73.21,185.44 68.62,185.48 61.85,185.50 55.08,185.52 50.35,185.53 45.63,185.53 41.77,185.62 37.90,185.71 34.25,185.46 30.60,185.21 27.70,185.24 24.79,185.26 21.85,184.95 18.90,184.64 15.64,184.38 12.38,184.12 9.73,183.20 7.08,182.28 4.83,181.03 2.58,179.77 0.50,179.18 -1.57,178.59 -3.95,177.33 -6.33,176.07 -8.32,174.86 -10.32,173.66 -12.14,172.28 -13.97,170.90 -16.04,169.24 -18.10,167.57 -20.91,166.16 -23.72,164.75 -25.54,163.42 -27.35,162.10 -29.32,160.74 -31.30,159.38 -33.36,157.25 -35.43,155.11 -36.69,152.88 -37.95,150.65 -39.54,148.90 -41.12,147.15 -43.24,144.52 -45.35,141.90 -46.36,137.75 -47.37,133.59 -48.03,129.85 -48.69,126.11 -48.84,122.80 -49.00,119.50 -48.98,117.35 -48.97,115.20 -48.91,110.85 -48.84,106.50 -48.73,103.65 -48.62,100.81 -48.59,98.49 -48.56,96.17 -48.33,92.59 -48.09,89.01 -47.86,85.27 -47.63,81.53 -47.33,77.34 -47.02,73.16 -47.14,68.20 -47.26,63.23 -47.23,58.76 -47.21,54.28 -47.14,49.41 -47.07,44.54 -47.08,40.62 -47.09,36.71 -47.09,32.82 -47.10,28.93 -46.63,24.55 -46.17,20.16 -45.18,15.26 -44.20,10.35 -42.62,5.22 -41.04,0.10 -40.59,-2.47 -40.13,-5.06 -38.90,-6.90 -37.68,-8.73 -33.72,-11.26 -29.76,-13.79 -27.52,-14.19 -25.28,-14.59 -22.82,-14.78 -20.35,-14.97 -18.19,-15.41 -16.04,-15.84 -11.98,-15.63 -7.92,-15.43 -6.17,-13.83 -4.42,-12.23 -2.20,-11.18 0.01,-10.13 3.11,-5.47 6.22,-0.81 5.92,0.11 5.61,1.03 5.02,1.81 4.44,2.59 3.63,3.14 2.83,3.69 1.89,3.95 0.95,4.22 -0.01,4.17 -0.98,4.12 -1.89,3.76 -2.80,3.40 -3.54,2.78 -4.29,2.15 -4.79,1.32 -5.30,0.48 -5.51,-0.46 -5.73,-1.41 -5.62,-2.38 -5.52,-3.35 -5.12,-4.23 -4.71,-5.12 -4.04,-5.83 -3.38,-6.54 -2.52,-7.00 -1.66,-7.46 -0.70,-7.62 0.25,-7.78 1.22,-7.63 2.18,-7.47 3.04,-7.02 3.90,-6.57 4.58,-5.86 5.25,-5.16 5.66,-4.28 6.07,-3.39 6.18,-2.42 6.29,-1.46 6.09,-0.50 5.88,0.44 5.38,1.28 4.88,2.11 4.14,2.75 3.40,3.38 2.50,3.74 1.59,4.11 0.62,4.16 -0.34,4.22 -1.28,3.96 -2.22,3.71 -3.03,3.16 -3.84,2.62 -4.43,1.85 -5.02,1.07 -5.34,0.15 -5.65,-0.76 -5.66,-1.74 -5.66,-2.71 -5.66,-2.71 -5.66,-2.71 -5.54,-1.21 -5.41,0.29 -7.97,-0.58 -10.54,-1.45 -12.48,-3.79 -14.42,-6.13 -17.19,-5.74 -19.96,-5.36 -22.12,-5.37 -24.27,-5.38 -27.14,-5.45 -30.00,-5.52 -31.94,-4.27 -33.87,-3.03 -34.68,-0.63 -35.49,1.76 -36.90,6.61 -38.31,11.46 -39.11,16.08 -39.92,20.71 -40.18,24.81 -40.45,28.91 -40.43,32.78 -40.41,36.66 -40.36,40.55 -40.32,44.44 -40.11,49.23 -39.91,54.02 -39.57,58.33 -39.23,62.65 -38.61,67.90 -37.98,73.16 -37.68,77.34 -37.38,81.53 -37.15,85.27 -36.91,89.01 -36.68,92.59 -36.44,96.17 -36.41,98.48 -36.39,100.80 -36.27,103.64 -36.15,106.48 -36.10,108.81 -36.04,111.13 -35.97,115.15 -35.90,119.17 -35.81,122.03 -35.73,124.88 -35.04,128.35 -34.36,131.83 -34.39,134.13 -34.41,136.44 -32.27,138.26 -30.13,140.08 -28.43,142.56 -26.73,145.03 -25.64,147.18 -24.55,149.32 -22.31,151.08 -20.07,152.84 -17.55,154.59 -15.03,156.35 -12.01,158.56 -9.00,160.77 -6.84,162.79 -4.67,164.82 -1.55,166.97 1.56,169.12 6.01,171.23 10.46,173.35 12.70,174.25 14.95,175.16 17.63,175.86 20.30,176.57 22.74,177.51 25.18,178.44 28.21,178.78 31.24,179.11 34.57,179.60 37.90,180.09 41.76,180.17 45.62,180.25 50.34,180.24 55.06,180.23 61.81,180.20 68.56,180.17 73.11,180.11 77.67,180.06 82.28,179.93 86.90,179.79 91.69,179.50 96.47,179.20 101.64,178.54 106.81,177.87 112.51,176.21 118.20,174.56 122.86,173.30 127.52,172.04 132.09,170.94 136.65,169.84 140.59,168.21 144.52,166.58 148.31,163.38 152.09,160.18 156.15,155.10 160.20,150.03 163.24,143.67 166.28,137.32 168.34,132.10 170.39,126.88 171.22,122.22 172.04,117.56 171.73,112.59 171.42,107.62 171.40,104.61 171.37,101.60 171.53,96.82 171.70,92.05 171.92,89.87 172.14,87.69 172.54,85.26 172.95,82.84 174.32,78.91 175.70,74.98 176.35,72.94 176.99,70.90 178.11,68.33 179.23,65.76 180.53,62.62 181.82,59.49 182.39,55.72 182.97,51.94 183.35,47.30 183.74,42.66 183.90,37.86 184.07,33.05 183.77,27.57 183.47,22.10 183.25,18.79 183.03,15.49 182.70,12.77 182.37,10.04 181.24,6.44 180.12,2.85 179.65,0.77 179.18,-1.30 176.98,-2.25 174.77,-3.20 170.79,-4.28 166.80,-5.35 163.96,-6.40 161.12,-7.45 157.09,-8.42 153.05,-9.40 150.28,-9.58 147.51,-9.76 144.47,-9.95 141.43,-10.15 136.90,-10.10 132.36,-10.06 125.18,-9.97 117.99,-9.88 108.92,-9.68 99.86,-9.48 89.85,-9.03 79.83,-8.59 68.29,-7.55 56.74,-6.51 46.39,-5.88 36.04,-5.24 27.97,-3.79 19.90,-2.33 13.81,-0.68 7.72,0.95 4.36,1.98 1.00,3.01 0.63,3.09 0.25,3.17 -0.12,3.15 -0.51,3.14 -0.88,3.03 -1.24,2.92 -1.58,2.73 -1.91,2.54 -2.18,2.27 -2.46,2.01 -2.67,1.68 -2.87,1.36 -2.99,0.99 -3.11,0.63 -3.14,0.25 -3.18,-0.12 -3.11,-0.50 -3.05,-0.88 -2.90,-1.24 -2.75,-1.59 -2.52,-1.89 -2.29,-2.20 -1.99,-2.44 -1.69,-2.69 -1.35,-2.85 -1.00,-3.01 -1.00,-3.01 L -1.00,-3.01 Z"></path></g><g transform="translate(720.6680768711998 2904.8974853088607) rotate(0 58.60918801861044 124.30300316034959)" stroke="none"><path d="M-1.81 1.55 L-1.14 -0.68 L5.1 -4.42 L20.78 -5.98 L38.36 -10.63 L74.96 -11.05 L88.52 -8.34 L99.01 -11.21 L100.29 -11.04 L104.35 -12.56 L110.1 -11.48 L121.7 -11.05 L123.11 -13.92 L124.18 -12.12 L127.86 -11.03 L135.26 -7.37 L141.89 -6.11 L145.17 -4.15 L147.22 -3.5 L146.67 -1.28 L148.14 1.3 L155.22 4.85 L156.35 5.04 L157.23 10.78 L157.46 15.02 L159.35 27.21 L161.66 31.51 L159.05 37.02 L159.64 43.85 L159.47 52.99 L162.64 63.84 L162.3 76.41 L159.56 77.92 L160.45 85.64 L162.83 90.49 L161.37 98.52 L159.86 107.25 L158.49 109.22 L157.3 112.83 L159.45 114.19 L159.59 112.99 L155.45 116 L156.01 119.74 L157.36 121.91 L154.66 125.5 L153.98 131.41 L153.73 130.64 L153.82 134.1 L154.39 132.93 L150.2 135.14 L150.74 138.97 L152.11 140.37 L146.42 146.34 L142.61 151.74 L144.34 155.29 L138.93 158.72 L137.2 159.45 L136.36 162.61 L133.1 165.46 L128.85 169.01 L127.1 170.88 L121.35 173.15 L119.07 179.44 L112.17 180.12 L109.13 183.51 L104.02 186.95 L96.79 192.14 L94.14 195.51 L88.52 202.81 L85.59 203.5 L84.76 202.22 L78.8 206.58 L73.44 211.35 L70.62 216.24 L69.37 219.42 L68.41 220.95 L67.7 222.62 L66.77 222.26 L67.41 224.4 L64.28 227.59 L63.59 229.91 L60.02 233.73 L55.98 236.23 L55.49 240.87 L52.74 245.72 L43.56 251.73 L44.12 254 L39.22 261.89 L35.04 261.05 L32.84 260.26 L27.67 261.13 L25.87 258.79 L21.29 252.62 L16.77 239.06 L12.54 225.97 L8.47 214.95 L4.5 201.54 L4.06 191.88 L-1.42 174.74 L-1.3 168.49 L-2.37 167.27 L-4.05 166.74 L-6.3 162.76 L-5.83 155.88 L-6.6 155.67 L-8.01 154.78 L-12.85 154.31 L-14.46 151.26 L-17.4 147.78 L-19.63 150.51 L-23.75 147.05 L-23.17 146.17 L-24.32 146.31 L-32.19 147.93 L-33.29 147.3 L-34.12 143.51 L-33.14 141.45 L-35.74 144.41 L-35.55 141.01 L-34.56 137.68 L-36.25 138.77 L-36.87 138.09 L-40.72 136.2 L-39.83 133.18 L-39.74 132.62 L-40.23 131.78 L-39.01 126.99 L-38.75 124.81 L-41.42 121.14 L-42.25 120.19 L-42.46 115.12 L-44.51 110.78 L-41.24 106.96 L-44.02 102.56 L-45.46 99.1 L-43.49 99.35 L-45.3 93.38 L-43.67 88.05 L-42.01 88.57 L-45.46 86.29 L-41.97 81.02 L-45.28 77.61 L-44.06 77.18 L-44.96 69.71 L-44.35 67.03 L-39.27 59.95 L-39.35 54.24 L-36.3 51.24 L-35.93 48.32 L-32.88 42.87 L-33.41 37.16 L-28.88 30.55 L-29.86 26.32 L-27.38 16.66 L-24.97 14.23 L-23.75 10.71 L-19.32 2.1 L-16.85 1.15 L-17.12 0.3 L-16.16 -2 L-12.6 -1.74 L-12.17 -2.92 L-8.75 -2.88 L-8.73 -6.53 L-10.9 -4.59 L-7.98 -4.92 L-3.67 -5.94 L-5.27 -3.79 L-1.91 -4.31 L-2.28 -4.99 L0.25 -1.7" stroke="none" stroke-width="0" fill="#ced4da" fill-rule="evenodd"></path><path fill="#1e1e1e" d="M -1.11,-3.56 Q -1.11,-3.56 4.85,-5.27 10.82,-6.98 18.73,-8.44 26.63,-9.91 40.47,-10.88 54.31,-11.84 64.60,-12.22 74.90,-12.60 81.34,-13.47 87.77,-14.33 90.94,-14.90 94.11,-15.46 96.64,-15.84 99.17,-16.22 102.89,-16.30 106.62,-16.39 110.40,-16.40 114.19,-16.42 116.54,-16.60 118.88,-16.79 122.02,-17.08 125.16,-17.37 128.58,-16.14 131.99,-14.90 134.89,-13.69 137.79,-12.47 140.11,-11.68 142.43,-10.89 146.12,-9.35 149.82,-7.81 151.29,-5.70 152.76,-3.59 155.16,-1.21 157.57,1.15 158.69,3.28 159.81,5.40 160.66,7.93 161.51,10.47 162.24,15.02 162.96,19.57 163.63,23.33 164.29,27.08 164.68,30.35 165.07,33.63 165.27,36.54 165.48,39.44 165.48,42.93 165.48,46.41 165.25,51.22 165.02,56.03 164.84,61.40 164.67,66.77 164.65,70.53 164.63,74.29 164.68,77.75 164.72,81.20 164.83,84.14 164.94,87.09 165.01,90.21 165.07,93.32 164.25,97.26 163.43,101.20 163.26,103.66 163.09,106.12 163.17,109.00 163.25,111.87 162.76,114.48 162.26,117.09 161.99,119.31 161.73,121.53 160.63,125.31 159.54,129.08 159.38,131.29 159.23,133.51 158.27,137.33 157.31,141.15 155.64,144.00 153.97,146.84 152.69,149.06 151.40,151.29 148.79,155.49 146.18,159.70 143.47,162.66 140.75,165.62 137.59,168.37 134.43,171.13 131.46,173.42 128.49,175.71 127.01,177.29 125.52,178.87 122.51,180.62 119.50,182.37 117.42,183.97 115.35,185.56 112.71,187.48 110.06,189.39 107.43,191.28 104.80,193.16 102.18,195.05 99.56,196.93 97.07,199.02 94.59,201.11 92.62,202.67 90.66,204.22 87.10,206.83 83.55,209.45 80.41,212.75 77.28,216.05 75.96,217.76 74.64,219.47 72.88,222.28 71.12,225.09 69.73,228.24 68.33,231.38 66.33,234.47 64.32,237.56 61.42,241.56 58.52,245.57 55.65,248.25 52.79,250.92 51.07,252.99 49.35,255.06 46.89,257.56 44.43,260.05 41.47,262.69 38.50,265.32 34.53,265.53 30.56,265.74 27.69,264.71 24.83,263.69 22.36,261.17 19.88,258.65 18.05,253.74 16.22,248.83 14.22,242.83 12.22,236.82 10.33,230.49 8.44,224.16 6.61,218.15 4.77,212.14 3.27,206.15 1.77,200.16 0.07,193.57 -1.62,186.98 -2.71,181.89 -3.79,176.80 -4.47,173.88 -5.15,170.97 -6.63,167.97 -8.11,164.98 -9.36,161.33 -10.62,157.68 -14.46,156.61 -18.30,155.53 -20.37,154.83 -22.44,154.13 -24.73,153.48 -27.02,152.84 -29.99,152.43 -32.97,152.02 -35.93,149.89 -38.89,147.75 -40.57,144.56 -42.25,141.36 -43.78,139.67 -45.31,137.98 -45.93,135.48 -46.55,132.99 -46.62,129.99 -46.68,127.00 -47.19,124.69 -47.69,122.37 -48.09,119.26 -48.49,116.15 -48.62,113.03 -48.76,109.91 -49.35,106.27 -49.95,102.62 -50.11,99.58 -50.28,96.55 -50.25,94.33 -50.23,92.12 -50.29,89.52 -50.34,86.93 -50.33,83.29 -50.31,79.65 -50.32,76.67 -50.33,73.68 -49.86,70.87 -49.39,68.07 -48.76,65.46 -48.13,62.84 -46.95,59.89 -45.76,56.94 -43.80,52.48 -41.85,48.02 -40.92,43.81 -40.00,39.59 -38.34,36.21 -36.68,32.84 -36.26,30.72 -35.84,28.61 -34.16,24.86 -32.49,21.11 -31.07,18.13 -29.65,15.14 -28.80,12.89 -27.96,10.63 -27.27,8.30 -26.58,5.97 -24.85,3.15 -23.13,0.33 -21.09,-1.91 -19.05,-4.15 -16.75,-5.19 -14.46,-6.23 -11.56,-8.62 -8.65,-11.01 -6.15,-11.24 -3.65,-11.47 -1.19,-10.34 1.27,-9.22 3.09,-6.99 4.92,-4.76 5.18,-3.75 5.44,-2.75 5.36,-1.71 5.28,-0.67 4.88,0.27 4.47,1.23 3.78,2.01 3.10,2.79 2.19,3.31 1.29,3.82 0.27,4.03 -0.74,4.23 -1.77,4.10 -2.80,3.96 -3.73,3.51 -4.67,3.05 -5.41,2.32 -6.15,1.59 -6.61,0.66 -7.08,-0.26 -7.23,-1.28 -7.38,-2.31 -7.19,-3.34 -7.00,-4.36 -6.49,-5.27 -5.99,-6.17 -5.22,-6.87 -4.45,-7.57 -3.50,-7.99 -2.54,-8.41 -1.51,-8.50 -0.47,-8.59 0.53,-8.35 1.54,-8.10 2.42,-7.55 3.30,-6.99 3.95,-6.19 4.61,-5.38 4.97,-4.41 5.34,-3.43 5.37,-2.40 5.41,-1.36 5.11,-0.36 4.81,0.63 4.21,1.47 3.61,2.32 2.77,2.93 1.93,3.55 0.94,3.86 -0.04,4.17 -1.08,4.15 -2.12,4.13 -3.10,3.77 -4.08,3.42 -4.89,2.78 -5.71,2.13 -6.27,1.26 -6.84,0.38 -6.84,0.39 -6.84,0.39 -6.78,0.66 -6.71,0.93 -9.99,3.08 -13.26,5.23 -15.08,7.16 -16.89,9.08 -17.74,11.71 -18.58,14.34 -19.59,16.78 -20.61,19.23 -21.82,22.07 -23.03,24.91 -24.07,27.91 -25.10,30.91 -25.83,34.21 -26.56,37.50 -27.60,39.90 -28.64,42.29 -29.15,44.63 -29.66,46.98 -30.27,49.72 -30.87,52.47 -32.62,56.88 -34.37,61.30 -35.11,63.40 -35.86,65.50 -36.56,69.60 -37.26,73.70 -37.26,76.68 -37.27,79.65 -37.25,83.28 -37.23,86.90 -37.27,89.47 -37.31,92.03 -37.24,95.61 -37.16,99.19 -36.99,101.73 -36.82,104.27 -36.08,108.75 -35.34,113.23 -34.71,117.66 -34.07,122.08 -33.60,124.45 -33.14,126.82 -33.77,129.05 -34.41,131.28 -33.17,134.79 -31.92,138.30 -29.71,139.75 -27.50,141.19 -24.67,141.71 -21.83,142.23 -19.82,142.99 -17.80,143.74 -15.32,144.97 -12.84,146.19 -10.44,147.64 -8.04,149.09 -5.77,150.50 -3.49,151.92 -2.48,153.95 -1.46,155.99 -0.91,159.16 -0.37,162.32 0.52,166.08 1.42,169.85 1.70,172.67 1.98,175.50 3.15,180.43 4.32,185.36 6.19,191.91 8.06,198.46 9.73,204.19 11.39,209.93 13.53,215.84 15.67,221.75 17.90,227.77 20.13,233.79 22.59,239.42 25.04,245.05 26.73,248.35 28.42,251.65 29.85,253.32 31.28,254.99 34.10,254.06 36.93,253.12 38.99,250.74 41.04,248.36 42.96,245.91 44.88,243.47 48.40,239.13 51.93,234.79 54.15,231.46 56.37,228.14 58.04,225.43 59.70,222.71 61.17,220.24 62.63,217.76 64.52,215.31 66.40,212.86 68.14,210.77 69.87,208.68 71.72,206.84 73.57,204.99 75.75,202.92 77.93,200.85 80.04,199.49 82.15,198.14 85.17,196.05 88.19,193.96 90.85,191.44 93.51,188.92 96.02,186.93 98.53,184.93 101.00,182.93 103.47,180.93 105.87,178.92 108.27,176.91 112.60,173.81 116.93,170.70 120.71,167.13 124.49,163.55 127.20,161.79 129.90,160.02 131.55,158.12 133.20,156.23 134.84,154.69 136.48,153.16 138.71,149.39 140.94,145.63 142.24,143.07 143.54,140.51 144.85,137.91 146.16,135.32 147.10,131.87 148.03,128.42 149.07,125.18 150.10,121.95 151.14,119.04 152.18,116.14 152.98,113.77 153.78,111.41 154.24,108.26 154.71,105.11 155.17,102.34 155.63,99.57 156.29,96.43 156.95,93.29 157.01,90.19 157.08,87.09 157.18,84.15 157.29,81.20 157.33,77.75 157.37,74.30 157.35,70.54 157.32,66.78 157.12,61.43 156.92,56.07 156.64,51.32 156.36,46.58 156.23,43.26 156.11,39.94 156.02,37.30 155.92,34.67 155.62,31.86 155.32,29.06 154.36,25.48 153.40,21.91 151.48,16.08 149.56,10.25 148.47,8.02 147.38,5.78 145.27,2.89 143.15,-0.00 141.13,-1.01 139.12,-2.02 136.71,-3.00 134.30,-3.98 129.59,-6.18 124.88,-8.37 121.90,-8.65 118.93,-8.92 116.59,-9.08 114.25,-9.25 110.50,-9.20 106.76,-9.15 103.21,-9.10 99.66,-9.04 97.28,-9.08 94.89,-9.13 91.73,-8.90 88.57,-8.68 81.86,-7.70 75.15,-6.72 64.96,-6.23 54.77,-5.74 41.32,-4.67 27.87,-3.60 20.37,-2.01 12.87,-0.42 6.99,1.57 1.11,3.56 0.67,3.64 0.22,3.72 -0.22,3.70 -0.67,3.67 -1.10,3.54 -1.53,3.40 -1.91,3.17 -2.30,2.94 -2.61,2.62 -2.93,2.30 -3.17,1.92 -3.40,1.53 -3.53,1.10 -3.67,0.67 -3.70,0.22 -3.72,-0.22 -3.64,-0.66 -3.56,-1.10 -3.38,-1.51 -3.19,-1.92 -2.92,-2.28 -2.64,-2.63 -2.28,-2.91 -1.93,-3.19 -1.52,-3.38 -1.11,-3.56 -1.11,-3.56 L -1.11,-3.56 Z"></path></g><g stroke-linecap="round" transform="translate(1017.4999999999998 2455.625) rotate(0 135 59.375)"><path d="M31.05 1.64 L240.34 -1.09 L253.33 1.06 L256.83 6.11 L266.73 13.1 L270.54 21.87 L271.29 89.76 L268.67 102.54 L264.72 106.21 L259.54 113.6 L255.11 115.81 L240.72 119.66 L28.27 119.47 L16.01 116.26 L7.53 112.34 L2.07 102.8 L2.2 94.45 L1.37 21.2 L5.37 11.28 L7.99 6.48 L17.33 3.46 L31.5 0.13" stroke="none" stroke-width="0" fill="#fff4e6"></path><path d="M29.69 0 M29.69 0 C99.32 -2.33, 169.28 -0.21, 240.31 0 M29.69 0 C111.16 -1.39, 190.5 -0.18, 240.31 0 M240.31 0 C261.7 1.83, 270.79 10.25, 270 29.69 M240.31 0 C261.07 2.11, 269.76 10.7, 270 29.69 M270 29.69 C268.35 49.52, 268.82 68, 270 89.06 M270 29.69 C269.34 40.68, 269.91 53.2, 270 89.06 M270 89.06 C269.18 107.26, 259.13 119.59, 240.31 118.75 M270 89.06 C272.16 107.09, 261.28 119.52, 240.31 118.75 M240.31 118.75 C158.18 120.77, 71.35 121.04, 29.69 118.75 M240.31 118.75 C180.46 119.21, 120.57 119.17, 29.69 118.75 M29.69 118.75 C10.71 118.35, -1.59 110.81, 0 89.06 M29.69 118.75 C9.49 119.47, 0.9 108, 0 89.06 M0 89.06 C-2.28 75.02, -0.43 56.85, 0 29.69 M0 89.06 C0.39 75.03, 0.29 59.79, 0 29.69 M0 29.69 C0.89 11.18, 11.63 1.6, 29.69 0 M0 29.69 C-0.09 8.4, 10.33 -0.23, 29.69 0" stroke="#f08c00" stroke-width="4" fill="none"></path></g><g stroke-linecap="round" transform="translate(1062.638888888889 952.7559523809525) rotate(0 239.5 62.5)"><path d="M31.25 0 L447.75 0 L455.07 0.49 L461.42 1.95 L466.79 4.39 L471.19 7.81 L474.61 12.21 L477.05 17.58 L478.51 23.93 L479 93.75 L478.51 101.07 L477.05 107.42 L474.61 112.79 L471.19 117.19 L466.79 120.61 L461.42 123.05 L455.07 124.51 L447.75 125 L31.25 125 L23.93 124.51 L17.58 123.05 L12.21 120.61 L7.81 117.19 L4.39 112.79 L1.95 107.42 L0.49 101.07 L0.49 23.93 L1.95 17.58 L4.39 12.21 L7.81 7.81 L12.21 4.39 L17.58 1.95 L23.93 0.49 L31.25 0" stroke="none" stroke-width="0" fill="#fff4e6"></path><path d="M31.25 0 M31.25 0 C175.18 0, 319.11 0, 447.75 0 M31.25 0 C165.58 0, 299.92 0, 447.75 0 M447.75 0 C468.58 0, 479 10.42, 479 31.25 M447.75 0 C468.58 0, 479 10.42, 479 31.25 M479 31.25 C479 51.5, 479 71.75, 479 93.75 M479 31.25 C479 43.89, 479 56.53, 479 93.75 M479 93.75 C479 114.58, 468.58 125, 447.75 125 M479 93.75 C479 114.58, 468.58 125, 447.75 125 M447.75 125 C326.91 125, 206.07 125, 31.25 125 M447.75 125 C359.85 125, 271.94 125, 31.25 125 M31.25 125 C10.42 125, 0 114.58, 0 93.75 M31.25 125 C10.42 125, 0 114.58, 0 93.75 M0 93.75 C0 75.68, 0 57.61, 0 31.25 M0 93.75 C0 75.88, 0 58, 0 31.25 M0 31.25 C0 10.42, 10.42 0, 31.25 0 M0 31.25 C0 10.42, 10.42 0, 31.25 0" stroke="#ffa94d" stroke-width="2" fill="none"></path></g><g transform="translate(1118.989474826389 957.7559523809525) rotate(0 183.1494140625 57.5)"><text x="183.1494140625" y="0" font-family="Helvetica, Segoe UI Emoji" font-size="20px" fill="#ffa94d" text-anchor="middle" style="white-space: pre;" direction="ltr" dominant-baseline="text-before-edge">DataTransformerInterface</text><text x="183.1494140625" y="23" font-family="Helvetica, Segoe UI Emoji" font-size="20px" fill="#ffa94d" text-anchor="middle" style="white-space: pre;" direction="ltr" dominant-baseline="text-before-edge"></text><text x="183.1494140625" y="46" font-family="Helvetica, Segoe UI Emoji" font-size="20px" fill="#ffa94d" text-anchor="middle" style="white-space: pre;" direction="ltr" dominant-baseline="text-before-edge">self.get_schema() -&gt; InputOutputSchema</text><text x="183.1494140625" y="69" font-family="Helvetica, Segoe UI Emoji" font-size="20px" fill="#ffa94d" text-anchor="middle" style="white-space: pre;" direction="ltr" dominant-baseline="text-before-edge">self.transform(data: Data) -&gt; Data</text><text x="183.1494140625" y="92" font-family="Helvetica, Segoe UI Emoji" font-size="20px" fill="#ffa94d" text-anchor="middle" style="white-space: pre;" direction="ltr" dominant-baseline="text-before-edge"></text></g><g stroke-linecap="round" transform="translate(299.3333333333336 1211.2837301587301) rotate(0 138.5 74)"><path d="M32 0 L245 0 L252.5 0.5 L259 2 L264.5 4.5 L269 8 L272.5 12.5 L275 18 L276.5 24.5 L277 32 L277 116 L276.5 123.5 L275 130 L272.5 135.5 L269 140 L264.5 143.5 L259 146 L252.5 147.5 L245 148 L32 148 L24.5 147.5 L18 146 L12.5 143.5 L8 140 L4.5 135.5 L2 130 L0.5 123.5 L0 116 L0.5 24.5 L2 18 L4.5 12.5 L8 8 L12.5 4.5 L18 2 L24.5 0.5 L32 0" stroke="none" stroke-width="0" fill="#e3fafc"></path><path d="M32 0 M32 0 C78.42 0, 124.84 0, 245 0 M32 0 C92.73 0, 153.46 0, 245 0 M245 0 C266.33 0, 277 10.67, 277 32 M245 0 C266.33 0, 277 10.67, 277 32 M277 32 C277 50.78, 277 69.55, 277 116 M277 32 C277 52.57, 277 73.14, 277 116 M277 116 C277 137.33, 266.33 148, 245 148 M277 116 C277 137.33, 266.33 148, 245 148 M245 148 C185.46 148, 125.91 148, 32 148 M245 148 C200.67 148, 156.33 148, 32 148 M32 148 C10.67 148, 0 137.33, 0 116 M32 148 C10.67 148, 0 137.33, 0 116 M0 116 C0 89.04, 0 62.08, 0 32 M0 116 C0 83.52, 0 51.04, 0 32 M0 32 C0 10.67, 10.67 0, 32 0 M0 32 C0 10.67, 10.67 0, 32 0" stroke="#0c8599" stroke-width="2" fill="none"></path></g><g transform="translate(347.7845052083336 1216.2837301587301) rotate(0 90.048828125 69)"><text x="90.048828125" y="0" font-family="Helvetica, Segoe UI Emoji" font-size="20px" fill="#0c8599" text-anchor="middle" style="white-space: pre;" direction="ltr" dominant-baseline="text-before-edge">data</text><text x="90.048828125" y="23" font-family="Helvetica, Segoe UI Emoji" font-size="20px" fill="#0c8599" text-anchor="middle" style="white-space: pre;" direction="ltr" dominant-baseline="text-before-edge"></text><text x="90.048828125" y="46" font-family="Helvetica, Segoe UI Emoji" font-size="20px" fill="#0c8599" text-anchor="middle" style="white-space: pre;" direction="ltr" dominant-baseline="text-before-edge">Parquet files on s3</text><text x="90.048828125" y="69" font-family="Helvetica, Segoe UI Emoji" font-size="20px" fill="#0c8599" text-anchor="middle" style="white-space: pre;" direction="ltr" dominant-baseline="text-before-edge">Parquet files on disk</text><text x="90.048828125" y="92" font-family="Helvetica, Segoe UI Emoji" font-size="20px" fill="#0c8599" text-anchor="middle" style="white-space: pre;" direction="ltr" dominant-baseline="text-before-edge">CSV files</text><text x="90.048828125" y="115" font-family="Helvetica, Segoe UI Emoji" font-size="20px" fill="#0c8599" text-anchor="middle" style="white-space: pre;" direction="ltr" dominant-baseline="text-before-edge">etc.</text></g><g stroke-linecap="round" transform="translate(663.3214285714289 1231.6329365079364) rotate(0 168.5 63)"><path d="M31.5 0 L305.5 0 L312.88 0.49 L319.28 1.97 L324.7 4.43 L329.13 7.88 L332.57 12.3 L335.03 17.72 L336.51 24.12 L337 94.5 L336.51 101.88 L335.03 108.28 L332.57 113.7 L329.13 118.13 L324.7 121.57 L319.28 124.03 L312.88 125.51 L305.5 126 L31.5 126 L24.12 125.51 L17.72 124.03 L12.3 121.57 L7.88 118.13 L4.43 113.7 L1.97 108.28 L0.49 101.88 L0.49 24.12 L1.97 17.72 L4.43 12.3 L7.88 7.88 L12.3 4.43 L17.72 1.97 L24.12 0.49 L31.5 0" stroke="none" stroke-width="0" fill="#ebfbee"></path><path d="M31.5 0 M31.5 0 C103.95 0, 176.4 0, 305.5 0 M31.5 0 C130.02 0, 228.54 0, 305.5 0 M305.5 0 C326.5 0, 337 10.5, 337 31.5 M305.5 0 C326.5 0, 337 10.5, 337 31.5 M337 31.5 C337 55.05, 337 78.6, 337 94.5 M337 31.5 C337 47.04, 337 62.57, 337 94.5 M337 94.5 C337 115.5, 326.5 126, 305.5 126 M337 94.5 C337 115.5, 326.5 126, 305.5 126 M305.5 126 C219.22 126, 132.95 126, 31.5 126 M305.5 126 C202.38 126, 99.26 126, 31.5 126 M31.5 126 C10.5 126, 0 115.5, 0 94.5 M31.5 126 C10.5 126, 0 115.5, 0 94.5 M0 94.5 C0 71.29, 0 48.07, 0 31.5 M0 94.5 C0 73.7, 0 52.89, 0 31.5 M0 31.5 C0 10.5, 10.5 0, 31.5 0 M0 31.5 C0 10.5, 10.5 0, 31.5 0" stroke="#2f9e44" stroke-width="2" fill="none"></path></g><g transform="translate(712.0313895089289 1236.6329365079364) rotate(0 119.7900390625 46)"><text x="119.7900390625" y="0" font-family="Helvetica, Segoe UI Emoji" font-size="20px" fill="#2f9e44" text-anchor="middle" style="white-space: pre;" direction="ltr" dominant-baseline="text-before-edge">DatasetInterface</text><text x="119.7900390625" y="23" font-family="Helvetica, Segoe UI Emoji" font-size="20px" fill="#2f9e44" text-anchor="middle" style="white-space: pre;" direction="ltr" dominant-baseline="text-before-edge"></text><text x="119.7900390625" y="46" font-family="Helvetica, Segoe UI Emoji" font-size="20px" fill="#2f9e44" text-anchor="middle" style="white-space: pre;" direction="ltr" dominant-baseline="text-before-edge">get_schema() -&gt; Schema</text><text x="119.7900390625" y="69" font-family="Helvetica, Segoe UI Emoji" font-size="20px" fill="#2f9e44" text-anchor="middle" style="white-space: pre;" direction="ltr" dominant-baseline="text-before-edge">__get__item() -&gt; InputData</text></g><g stroke-linecap="round" transform="translate(1147.7658730158735 1218.4940476190477) rotate(0 168.5 63)"><path d="M31.5 0 L305.5 0 L312.88 0.49 L319.28 1.97 L324.7 4.43 L329.13 7.88 L332.57 12.3 L335.03 17.72 L336.51 24.12 L337 94.5 L336.51 101.88 L335.03 108.28 L332.57 113.7 L329.13 118.13 L324.7 121.57 L319.28 124.03 L312.88 125.51 L305.5 126 L31.5 126 L24.12 125.51 L17.72 124.03 L12.3 121.57 L7.88 118.13 L4.43 113.7 L1.97 108.28 L0.49 101.88 L0.49 24.12 L1.97 17.72 L4.43 12.3 L7.88 7.88 L12.3 4.43 L17.72 1.97 L24.12 0.49 L31.5 0" stroke="none" stroke-width="0" fill="#fff0f6"></path><path d="M31.5 0 M31.5 0 C117.06 0, 202.63 0, 305.5 0 M31.5 0 C90.28 0, 149.06 0, 305.5 0 M305.5 0 C326.5 0, 337 10.5, 337 31.5 M305.5 0 C326.5 0, 337 10.5, 337 31.5 M337 31.5 C337 56.4, 337 81.3, 337 94.5 M337 31.5 C337 55.93, 337 80.35, 337 94.5 M337 94.5 C337 115.5, 326.5 126, 305.5 126 M337 94.5 C337 115.5, 326.5 126, 305.5 126 M305.5 126 C206.01 126, 106.53 126, 31.5 126 M305.5 126 C237.78 126, 170.06 126, 31.5 126 M31.5 126 C10.5 126, 0 115.5, 0 94.5 M31.5 126 C10.5 126, 0 115.5, 0 94.5 M0 94.5 C0 73.83, 0 53.16, 0 31.5 M0 94.5 C0 79.19, 0 63.88, 0 31.5 M0 31.5 C0 10.5, 10.5 0, 31.5 0 M0 31.5 C0 10.5, 10.5 0, 31.5 0" stroke="#c2255c" stroke-width="2" fill="none"></path></g><g transform="translate(1168.4045448908735 1223.4940476190477) rotate(0 147.861328125 46)"><text x="147.861328125" y="0" font-family="Helvetica, Segoe UI Emoji" font-size="20px" fill="#c2255c" text-anchor="middle" style="white-space: pre;" direction="ltr" dominant-baseline="text-before-edge">torch.DataLoader</text><text x="147.861328125" y="23" font-family="Helvetica, Segoe UI Emoji" font-size="20px" fill="#c2255c" text-anchor="middle" style="white-space: pre;" direction="ltr" dominant-baseline="text-before-edge"></text><text x="147.861328125" y="46" font-family="Helvetica, Segoe UI Emoji" font-size="20px" fill="#c2255c" text-anchor="middle" style="white-space: pre;" direction="ltr" dominant-baseline="text-before-edge">is iterable and returns batches of </text><text x="147.861328125" y="69" font-family="Helvetica, Segoe UI Emoji" font-size="20px" fill="#c2255c" text-anchor="middle" style="white-space: pre;" direction="ltr" dominant-baseline="text-before-edge">InputData (Data)</text></g><g stroke-linecap="round" transform="translate(1599.7658730158735 1195.8551587301583) rotate(0 268.5000000000001 120)"><path d="M32 0 L505 0 L512.5 0.5 L519 2 L524.5 4.5 L529 8 L532.5 12.5 L535 18 L536.5 24.5 L537 208 L536.5 215.5 L535 222 L532.5 227.5 L529 232 L524.5 235.5 L519 238 L512.5 239.5 L505 240 L32 240 L24.5 239.5 L18 238 L12.5 235.5 L8 232 L4.5 227.5 L2 222 L0.5 215.5 L0 32 L0.5 24.5 L2 18 L4.5 12.5 L8 8 L12.5 4.5 L18 2 L24.5 0.5 L32 0" stroke="none" stroke-width="0" fill="#f3f0ff"></path><path d="M32 0 M32 0 C209.41 0, 386.82 0, 505 0 M32 0 C152.5 0, 273.01 0, 505 0 M505 0 C526.33 0, 537 10.67, 537 32 M505 0 C526.33 0, 537 10.67, 537 32 M537 32 C537 84.76, 537 137.51, 537 208 M537 32 C537 84.14, 537 136.29, 537 208 M537 208 C537 229.33, 526.33 240, 505 240 M537 208 C537 229.33, 526.33 240, 505 240 M505 240 C368.18 240, 231.37 240, 32 240 M505 240 C402.33 240, 299.67 240, 32 240 M32 240 C10.67 240, 0 229.33, 0 208 M32 240 C10.67 240, 0 229.33, 0 208 M0 208 C0 172.49, 0 136.98, 0 32 M0 208 C0 153.38, 0 98.75, 0 32 M0 32 C0 10.67, 10.67 0, 32 0 M0 32 C0 10.67, 10.67 0, 32 0" stroke="#6741d9" stroke-width="2" fill="none"></path></g><g transform="translate(1649.9113808283735 1200.8551587301583) rotate(0 218.3544921875001 115)"><text x="218.3544921875" y="0" font-family="Helvetica, Segoe UI Emoji" font-size="20px" fill="#6741d9" text-anchor="middle" style="white-space: pre;" direction="ltr" dominant-baseline="text-before-edge">ModelInterface</text><text x="218.3544921875" y="23" font-family="Helvetica, Segoe UI Emoji" font-size="20px" fill="#6741d9" text-anchor="middle" style="white-space: pre;" direction="ltr" dominant-baseline="text-before-edge"></text><text x="218.3544921875" y="46" font-family="Helvetica, Segoe UI Emoji" font-size="20px" fill="#6741d9" text-anchor="middle" style="white-space: pre;" direction="ltr" dominant-baseline="text-before-edge">forward(</text><text x="218.3544921875" y="69" font-family="Helvetica, Segoe UI Emoji" font-size="20px" fill="#6741d9" text-anchor="middle" style="white-space: pre;" direction="ltr" dominant-baseline="text-before-edge">input: InputData:</text><text x="218.3544921875" y="92" font-family="Helvetica, Segoe UI Emoji" font-size="20px" fill="#6741d9" text-anchor="middle" style="white-space: pre;" direction="ltr" dominant-baseline="text-before-edge">mode: ForwardMode,</text><text x="218.3544921875" y="115" font-family="Helvetica, Segoe UI Emoji" font-size="20px" fill="#6741d9" text-anchor="middle" style="white-space: pre;" direction="ltr" dominant-baseline="text-before-edge">pupil_state: List[PupilState] -&gt; Tuple(Predictions, </text><text x="218.3544921875" y="138" font-family="Helvetica, Segoe UI Emoji" font-size="20px" fill="#6741d9" text-anchor="middle" style="white-space: pre;" direction="ltr" dominant-baseline="text-before-edge">List[PupilState])</text><text x="218.3544921875" y="161" font-family="Helvetica, Segoe UI Emoji" font-size="20px" fill="#6741d9" text-anchor="middle" style="white-space: pre;" direction="ltr" dominant-baseline="text-before-edge">)</text><text x="218.3544921875" y="184" font-family="Helvetica, Segoe UI Emoji" font-size="20px" fill="#6741d9" text-anchor="middle" style="white-space: pre;" direction="ltr" dominant-baseline="text-before-edge">get_schema() -&gt; InputOutputSchema</text><text x="218.3544921875" y="207" font-family="Helvetica, Segoe UI Emoji" font-size="20px" fill="#6741d9" text-anchor="middle" style="white-space: pre;" direction="ltr" dominant-baseline="text-before-edge"></text></g><g stroke-linecap="round" transform="translate(1537.3622568371916 1524.1012843976496) rotate(0 138.5 74)"><path d="M32 0 L245 0 L252.5 0.5 L259 2 L264.5 4.5 L269 8 L272.5 12.5 L275 18 L276.5 24.5 L277 32 L277 116 L276.5 123.5 L275 130 L272.5 135.5 L269 140 L264.5 143.5 L259 146 L252.5 147.5 L245 148 L32 148 L24.5 147.5 L18 146 L12.5 143.5 L8 140 L4.5 135.5 L2 130 L0.5 123.5 L0 116 L0.5 24.5 L2 18 L4.5 12.5 L8 8 L12.5 4.5 L18 2 L24.5 0.5 L32 0" stroke="none" stroke-width="0" fill="#f8f1ee"></path><path d="M32 0 M32 0 C76.59 0, 121.18 0, 245 0 M32 0 C104.01 0, 176.03 0, 245 0 M245 0 C266.33 0, 277 10.67, 277 32 M245 0 C266.33 0, 277 10.67, 277 32 M277 32 C277 61.78, 277 91.55, 277 116 M277 32 C277 52.15, 277 72.3, 277 116 M277 116 C277 137.33, 266.33 148, 245 148 M277 116 C277 137.33, 266.33 148, 245 148 M245 148 C168.59 148, 92.19 148, 32 148 M245 148 C176.19 148, 107.39 148, 32 148 M32 148 C10.67 148, 0 137.33, 0 116 M32 148 C10.67 148, 0 137.33, 0 116 M0 116 C0 88.21, 0 60.41, 0 32 M0 116 C0 87.26, 0 58.52, 0 32 M0 32 C0 10.67, 10.67 0, 32 0 M0 32 C0 10.67, 10.67 0, 32 0" stroke="#846358" stroke-width="2" fill="none"></path></g><g transform="translate(1546.9022958996916 1529.1012843976496) rotate(0 128.9599609375 46)"><text x="128.9599609375" y="0" font-family="Helvetica, Segoe UI Emoji" font-size="20px" fill="#846358" text-anchor="middle" style="white-space: pre;" direction="ltr" dominant-baseline="text-before-edge">InputOutputSchema</text><text x="128.9599609375" y="23" font-family="Helvetica, Segoe UI Emoji" font-size="20px" fill="#846358" text-anchor="middle" style="white-space: pre;" direction="ltr" dominant-baseline="text-before-edge"></text><text x="128.9599609375" y="46" font-family="Helvetica, Segoe UI Emoji" font-size="20px" fill="#846358" text-anchor="middle" style="white-space: pre;" direction="ltr" dominant-baseline="text-before-edge">self.input_schema: Schema</text><text x="128.9599609375" y="69" font-family="Helvetica, Segoe UI Emoji" font-size="20px" fill="#846358" text-anchor="middle" style="white-space: pre;" direction="ltr" dominant-baseline="text-before-edge">self.output_schema: Schema</text></g><g stroke-linecap="round" transform="translate(1206.3622568371914 1526.1012843976494) rotate(0 138.5 74)"><path d="M32 0 L245 0 L252.5 0.5 L259 2 L264.5 4.5 L269 8 L272.5 12.5 L275 18 L276.5 24.5 L277 32 L277 116 L276.5 123.5 L275 130 L272.5 135.5 L269 140 L264.5 143.5 L259 146 L252.5 147.5 L245 148 L32 148 L24.5 147.5 L18 146 L12.5 143.5 L8 140 L4.5 135.5 L2 130 L0.5 123.5 L0 116 L0.5 24.5 L2 18 L4.5 12.5 L8 8 L12.5 4.5 L18 2 L24.5 0.5 L32 0" stroke="none" stroke-width="0" fill="#ffc9c9"></path><path d="M32 0 M32 0 C82.99 0, 133.99 0, 245 0 M32 0 C89.94 0, 147.89 0, 245 0 M245 0 C266.33 0, 277 10.67, 277 32 M245 0 C266.33 0, 277 10.67, 277 32 M277 32 C277 53.4, 277 74.81, 277 116 M277 32 C277 49.71, 277 67.42, 277 116 M277 116 C277 137.33, 266.33 148, 245 148 M277 116 C277 137.33, 266.33 148, 245 148 M245 148 C160.54 148, 76.07 148, 32 148 M245 148 C201.55 148, 158.09 148, 32 148 M32 148 C10.67 148, 0 137.33, 0 116 M32 148 C10.67 148, 0 137.33, 0 116 M0 116 C0 86.97, 0 57.93, 0 32 M0 116 C0 90.44, 0 64.88, 0 32 M0 32 C0 10.67, 10.67 0, 32 0 M0 32 C0 10.67, 10.67 0, 32 0" stroke="#e03131" stroke-width="2" fill="none"></path></g><g transform="translate(1249.8280771496914 1531.1012843976494) rotate(0 95.0341796875 34.5)"><text x="95.0341796875" y="0" font-family="Helvetica, Segoe UI Emoji" font-size="20px" fill="#e03131" text-anchor="middle" style="white-space: pre;" direction="ltr" dominant-baseline="text-before-edge">Schema</text><text x="95.0341796875" y="23" font-family="Helvetica, Segoe UI Emoji" font-size="20px" fill="#e03131" text-anchor="middle" style="white-space: pre;" direction="ltr" dominant-baseline="text-before-edge"></text><text x="95.0341796875" y="46" font-family="Helvetica, Segoe UI Emoji" font-size="20px" fill="#e03131" text-anchor="middle" style="white-space: pre;" direction="ltr" dominant-baseline="text-before-edge">self.fields: List[Fields]</text></g><g stroke-linecap="round" transform="translate(766.2814829359411 1526.4901732865387) rotate(0 138.5 74)"><path d="M32 0 L245 0 L252.5 0.5 L259 2 L264.5 4.5 L269 8 L272.5 12.5 L275 18 L276.5 24.5 L277 32 L277 116 L276.5 123.5 L275 130 L272.5 135.5 L269 140 L264.5 143.5 L259 146 L252.5 147.5 L245 148 L32 148 L24.5 147.5 L18 146 L12.5 143.5 L8 140 L4.5 135.5 L2 130 L0.5 123.5 L0 116 L0.5 24.5 L2 18 L4.5 12.5 L8 8 L12.5 4.5 L18 2 L24.5 0.5 L32 0" stroke="none" stroke-width="0" fill="#b2f2bb"></path><path d="M32 0 M32 0 C82.01 0, 132.02 0, 245 0 M32 0 C97.32 0, 162.63 0, 245 0 M245 0 C266.33 0, 277 10.67, 277 32 M245 0 C266.33 0, 277 10.67, 277 32 M277 32 C277 62.93, 277 93.85, 277 116 M277 32 C277 50.57, 277 69.14, 277 116 M277 116 C277 137.33, 266.33 148, 245 148 M277 116 C277 137.33, 266.33 148, 245 148 M245 148 C198.34 148, 151.68 148, 32 148 M245 148 C181.11 148, 117.22 148, 32 148 M32 148 C10.67 148, 0 137.33, 0 116 M32 148 C10.67 148, 0 137.33, 0 116 M0 116 C0 93.59, 0 71.19, 0 32 M0 116 C0 92.65, 0 69.3, 0 32 M0 32 C0 10.67, 10.67 0, 32 0 M0 32 C0 10.67, 10.67 0, 32 0" stroke="#2f9e44" stroke-width="2" fill="none"></path></g><g transform="translate(818.0578501234411 1531.4901732865387) rotate(0 86.7236328125 69)"><text x="86.7236328125" y="0" font-family="Helvetica, Segoe UI Emoji" font-size="20px" fill="#2f9e44" text-anchor="middle" style="white-space: pre;" direction="ltr" dominant-baseline="text-before-edge">Field</text><text x="86.7236328125" y="23" font-family="Helvetica, Segoe UI Emoji" font-size="20px" fill="#2f9e44" text-anchor="middle" style="white-space: pre;" direction="ltr" dominant-baseline="text-before-edge"></text><text x="86.7236328125" y="46" font-family="Helvetica, Segoe UI Emoji" font-size="20px" fill="#2f9e44" text-anchor="middle" style="white-space: pre;" direction="ltr" dominant-baseline="text-before-edge">self.name: str</text><text x="86.7236328125" y="69" font-family="Helvetica, Segoe UI Emoji" font-size="20px" fill="#2f9e44" text-anchor="middle" style="white-space: pre;" direction="ltr" dominant-baseline="text-before-edge">self.shape: Tuple</text><text x="86.7236328125" y="92" font-family="Helvetica, Segoe UI Emoji" font-size="20px" fill="#2f9e44" text-anchor="middle" style="white-space: pre;" direction="ltr" dominant-baseline="text-before-edge">self.dtype: np.dtype</text><text x="86.7236328125" y="115" font-family="Helvetica, Segoe UI Emoji" font-size="20px" fill="#2f9e44" text-anchor="middle" style="white-space: pre;" direction="ltr" dominant-baseline="text-before-edge">self.info: str</text></g><g stroke-linecap="round" transform="translate(417.09173514304507 1530.3002465510622) rotate(0 138.5 66.5)"><path d="M32 0 L245 0 L252.5 0.5 L259 2 L264.5 4.5 L269 8 L272.5 12.5 L275 18 L276.5 24.5 L277 101 L276.5 108.5 L275 115 L272.5 120.5 L269 125 L264.5 128.5 L259 131 L252.5 132.5 L245 133 L32 133 L24.5 132.5 L18 131 L12.5 128.5 L8 125 L4.5 120.5 L2 115 L0.5 108.5 L0 101 L0.5 24.5 L2 18 L4.5 12.5 L8 8 L12.5 4.5 L18 2 L24.5 0.5 L32 0" stroke="none" stroke-width="0" fill="#a5d8ff"></path><path d="M32 0 M32 0 C85.98 0, 139.96 0, 245 0 M32 0 C83.94 0, 135.87 0, 245 0 M245 0 C266.33 0, 277 10.67, 277 32 M245 0 C266.33 0, 277 10.67, 277 32 M277 32 C277 54.46, 277 76.91, 277 101 M277 32 C277 50.05, 277 68.1, 277 101 M277 101 C277 122.33, 266.33 133, 245 133 M277 101 C277 122.33, 266.33 133, 245 133 M245 133 C171.98 133, 98.95 133, 32 133 M245 133 C194.94 133, 144.87 133, 32 133 M32 133 C10.67 133, 0 122.33, 0 101 M32 133 C10.67 133, 0 122.33, 0 101 M0 101 C0 74.54, 0 48.08, 0 32 M0 101 C0 82.37, 0 63.74, 0 32 M0 32 C0 10.67, 10.67 0, 32 0 M0 32 C0 10.67, 10.67 0, 32 0" stroke="#1971c2" stroke-width="2" fill="none"></path></g><g transform="translate(468.89739920554507 1535.3002465510622) rotate(0 86.6943359375 34.5)"><text x="86.6943359375" y="0" font-family="Helvetica, Segoe UI Emoji" font-size="20px" fill="#1971c2" text-anchor="middle" style="white-space: pre;" direction="ltr" dominant-baseline="text-before-edge">Data (InputData)</text><text x="86.6943359375" y="23" font-family="Helvetica, Segoe UI Emoji" font-size="20px" fill="#1971c2" text-anchor="middle" style="white-space: pre;" direction="ltr" dominant-baseline="text-before-edge"></text><text x="86.6943359375" y="46" font-family="Helvetica, Segoe UI Emoji" font-size="20px" fill="#1971c2" text-anchor="middle" style="white-space: pre;" direction="ltr" dominant-baseline="text-before-edge">Dict[Field, np.array]</text></g><g stroke-linecap="round"><g transform="translate(1045.4283083327666 1600.0083150537314) rotate(0 78.81003571296219 -1.1957067495104639)"><path d="M-0.56 1.03 C25.62 0.55, 131.91 -2.58, 158.18 -3.42 M1.35 0.52 C27.34 0.28, 131.89 -1.42, 157.69 -2.03" stroke="#1e1e1e" stroke-width="4" fill="none"></path></g><g transform="translate(1045.4283083327666 1600.0083150537314) rotate(0 78.81003571296219 -1.1957067495104639)"><path d="M131.42 10.23 C140.27 4.27, 150.29 -0.8, 157.62 -2.1 M130.6 9.1 C140.38 3.59, 151.62 0.12, 156.79 -2.91" stroke="#1e1e1e" stroke-width="4" fill="none"></path></g><g transform="translate(1045.4283083327666 1600.0083150537314) rotate(0 78.81003571296219 -1.1957067495104639)"><path d="M131.02 -10.28 C139.94 -8.19, 150.11 -5.2, 157.62 -2.1 M130.21 -11.42 C140 -8.83, 151.39 -4.2, 156.79 -2.91" stroke="#1e1e1e" stroke-width="4" fill="none"></path></g></g><mask></mask><g stroke-linecap="round"><g transform="translate(1488.2868600117947 1598.687996674399) rotate(0 23.35425711252219 -0.5921053901352025)"><path d="M-0.46 0.09 C7.13 0.24, 37.05 0.26, 44.95 0.42 M1.5 -0.9 C9.51 -1.1, 39.63 -1.61, 47.17 -1.6" stroke="#1e1e1e" stroke-width="4" fill="none"></path></g><g transform="translate(1488.2868600117947 1598.687996674399) rotate(0 23.35425711252219 -0.5921053901352025)"><path d="M25.84 4.89 C31.44 6.26, 37.88 1.68, 48.05 -0.99 M26.59 5.84 C31.89 4.56, 38.57 1.41, 47.44 -2.05" stroke="#1e1e1e" stroke-width="4" fill="none"></path></g><g transform="translate(1488.2868600117947 1598.687996674399) rotate(0 23.35425711252219 -0.5921053901352025)"><path d="M25.69 -10.81 C31.26 -5.5, 37.75 -6.15, 48.05 -0.99 M26.44 -9.86 C31.85 -6.2, 38.57 -4.43, 47.44 -2.05" stroke="#1e1e1e" stroke-width="4" fill="none"></path></g></g><mask></mask><g stroke-linecap="round"><g transform="translate(1001.3214285714291 1287.506727618651) rotate(0 72.59587398554629 -1.080354181137352)"><path d="M-1.2 -1.03 C22.93 -1.31, 119.88 -1.32, 144.05 -1.69 M0.37 1.05 C24.95 0.45, 122.08 -2.67, 146.39 -3.21" stroke="#1e1e1e" stroke-width="4" fill="none"></path></g><g transform="translate(1001.3214285714291 1287.506727618651) rotate(0 72.59587398554629 -1.080354181137352)"><path d="M116.78 6.64 C127.19 3.87, 131.33 3.81, 147.94 -4.5 M117.74 8.02 C128.26 3.87, 136.23 0.4, 145.44 -3.7" stroke="#1e1e1e" stroke-width="4" fill="none"></path></g><g transform="translate(1001.3214285714291 1287.506727618651) rotate(0 72.59587398554629 -1.080354181137352)"><path d="M116.21 -13.88 C126.76 -11.66, 131.04 -6.75, 147.94 -4.5 M117.17 -12.5 C127.7 -9.8, 135.86 -6.42, 145.44 -3.7" stroke="#1e1e1e" stroke-width="4" fill="none"></path></g></g><mask></mask><g stroke-linecap="round"><g transform="translate(578.5833333333337 1289.1228334823638) rotate(0 37.21752963342237 1.4316969858593893)"><path d="M-0.87 0.38 C11.85 0.6, 62.86 1.73, 75.31 2.38 M0.87 -0.46 C13.58 0.38, 62.1 2.85, 74.66 3.32" stroke="#1e1e1e" stroke-width="4" fill="none"></path></g><g transform="translate(578.5833333333337 1289.1228334823638) rotate(0 37.21752963342237 1.4316969858593893)"><path d="M46.68 13.26 C50.19 9.11, 59.49 10.44, 73.12 4.2 M46 13.04 C57.77 9.15, 69.66 4.17, 74.78 3.28" stroke="#1e1e1e" stroke-width="4" fill="none"></path></g><g transform="translate(578.5833333333337 1289.1228334823638) rotate(0 37.21752963342237 1.4316969858593893)"><path d="M47.61 -7.24 C51.1 -7.02, 60.2 -1.31, 73.12 4.2 M46.93 -7.46 C58.51 -3.2, 70.03 -0.03, 74.78 3.28" stroke="#1e1e1e" stroke-width="4" fill="none"></path></g></g><mask></mask><g stroke-linecap="round"><g transform="translate(1055.5357142857142 1009.1167726000856) rotate(0 -92.74617872199036 109.42723059827148)"><path d="M-0.7 0.2 C-29.43 8.3, -141.58 12.46, -171.38 48.82 C-201.18 85.18, -177.82 189.87, -179.48 218.34 M1.13 -0.74 C-27.31 7.51, -139.05 13.39, -169.17 50.12 C-199.3 86.84, -177.58 191.67, -179.62 219.6" stroke="#1e1e1e" stroke-width="4" fill="none"></path></g><g transform="translate(1055.5357142857142 1009.1167726000856) rotate(0 -92.74617872199036 109.42723059827148)"><path d="M-191.23 190.47 C-187.72 204.63, -182.58 212.04, -177.66 220.63 M-190.92 192.4 C-189.45 197.88, -186.18 204.26, -180.12 220.57" stroke="#1e1e1e" stroke-width="4" fill="none"></path></g><g transform="translate(1055.5357142857142 1009.1167726000856) rotate(0 -92.74617872199036 109.42723059827148)"><path d="M-170.75 189.24 C-175.05 203.74, -177.73 211.63, -177.66 220.63 M-170.43 191.16 C-173.8 196.77, -175.35 203.44, -180.12 220.57" stroke="#1e1e1e" stroke-width="4" fill="none"></path></g></g><mask></mask><g stroke-linecap="round"><g transform="translate(1548.8690476190475 1020.8302057875509) rotate(0 163.71024468972917 84.07420417551583)"><path d="M-0.75 0.58 C34.68 4.58, 158.58 -2.63, 213.4 25.08 C268.22 52.79, 308.95 143.2, 328.17 166.85 M1.06 -0.16 C36.27 4.5, 158.1 -1.89, 212.48 26.19 C266.87 54.26, 307.92 144.62, 327.38 168.3" stroke="#1e1e1e" stroke-width="4" fill="none"></path></g><g transform="translate(1548.8690476190475 1020.8302057875509) rotate(0 163.71024468972917 84.07420417551583)"><path d="M304.44 150.28 C311.02 156.87, 321.56 164.42, 328.01 168.93 M303 149.66 C308.14 154.17, 314.01 158.18, 327.19 169.11" stroke="#1e1e1e" stroke-width="4" fill="none"></path></g><g transform="translate(1548.8690476190475 1020.8302057875509) rotate(0 163.71024468972917 84.07420417551583)"><path d="M321.69 139.16 C322.05 149.71, 326.29 161.33, 328.01 168.93 M320.25 138.54 C321.84 145.26, 324.11 151.59, 327.19 169.11" stroke="#1e1e1e" stroke-width="4" fill="none"></path></g></g><mask></mask><g stroke-linecap="round"><g transform="translate(1486.2499999999998 1284.830001773658) rotate(0 56.50305200379353 1.6489768792469022)"><path d="M-1 -0.42 C17.81 0.21, 92.82 2.89, 111.71 3.38 M0.68 -1.69 C19.97 -0.8, 95.55 4.14, 114 4.98" stroke="#1e1e1e" stroke-width="4" fill="none"></path></g><g transform="translate(1486.2499999999998 1284.830001773658) rotate(0 56.50305200379353 1.6489768792469022)"><path d="M84.57 12.31 C91.42 11.75, 95.81 11.19, 113.26 4.82 M84.69 13.95 C90.13 12.01, 95.83 10.51, 113.93 5.12" stroke="#1e1e1e" stroke-width="4" fill="none"></path></g><g transform="translate(1486.2499999999998 1284.830001773658) rotate(0 56.50305200379353 1.6489768792469022)"><path d="M85.74 -8.18 C92.27 -4.55, 96.43 -0.92, 113.26 4.82 M85.85 -6.54 C91.16 -4.35, 96.64 -1.73, 113.93 5.12" stroke="#1e1e1e" stroke-width="4" fill="none"></path></g></g><mask></mask><g stroke-linecap="round" transform="translate(10 863.125) rotate(0 1093.75 467.5)"><path d="M32 0 M32 0 C713.91 -1.3, 1396.02 -0.6, 2155.5 0 M32 0 C691.88 1.72, 1351.99 1.42, 2155.5 0 M2155.5 0 C2175.23 0.12, 2187.13 12.26, 2187.5 32 M2155.5 0 C2177.05 1.37, 2185.97 9.63, 2187.5 32 M2187.5 32 C2187.15 233.42, 2186.71 433.83, 2187.5 903 M2187.5 32 C2187.26 297.13, 2187.2 562.18, 2187.5 903 M2187.5 903 C2186.39 925.3, 2176.55 934.04, 2155.5 935 M2187.5 903 C2186.67 924.87, 2178.84 936.69, 2155.5 935 M2155.5 935 C1678.43 939.72, 1200.17 939.01, 32 935 M2155.5 935 C1483.43 927.38, 811.62 927.16, 32 935 M32 935 C8.8 936.31, -0.9 923.45, 0 903 M32 935 C11.22 934.73, -0.65 923.27, 0 903 M0 903 C0.31 613.57, -0.9 323.18, 0 32 M0 903 C2.74 633.69, 3.01 363.57, 0 32 M0 32 C2 10.54, 10.31 -0.61, 32 0 M0 32 C1.7 11.44, 9.61 0.83, 32 0" stroke="#1e1e1e" stroke-width="4" fill="none"></path></g><g stroke-linecap="round" transform="translate(1262.4999999999998 110.625) rotate(0 162.5 148.125)"><path d="M230.22 14.2 C245.92 18.13, 260.21 29.69, 272.64 39.9 C285.07 50.11, 296.67 62.18, 304.8 75.46 C312.92 88.74, 318.09 104.72, 321.38 119.58 C324.66 134.44, 326.46 149.5, 324.49 164.62 C322.52 179.74, 316.47 196.49, 309.54 210.3 C302.61 224.1, 294.25 236.2, 282.92 247.45 C271.59 258.69, 256.32 270.09, 241.57 277.76 C226.82 285.43, 210.74 290.61, 194.42 293.48 C178.09 296.35, 160.05 296.86, 143.64 294.98 C127.23 293.1, 111.26 288.37, 95.94 282.23 C80.62 276.08, 64.33 268.21, 51.73 258.12 C39.13 248.03, 28.41 235.19, 20.34 221.69 C12.26 208.2, 6.4 192.3, 3.3 177.17 C0.2 162.04, -0.02 146.05, 1.75 130.92 C3.52 115.78, 7.08 100.04, 13.93 86.37 C20.78 72.7, 31.49 60.18, 42.86 48.89 C54.22 37.6, 67.62 26.2, 82.14 18.64 C96.65 11.08, 113.45 6.59, 129.93 3.52 C146.41 0.46, 161.5 -2.69, 181.01 0.24 C200.52 3.18, 234.01 15.72, 246.99 21.13 C259.97 26.55, 260.39 30.59, 258.88 32.73 M176.87 1.76 C192.58 1.22, 211.05 7.47, 226.65 13.64 C242.24 19.81, 257.9 28.64, 270.44 38.79 C282.97 48.94, 293.38 61.42, 301.85 74.53 C310.32 87.65, 317.72 102.67, 321.27 117.51 C324.82 132.35, 325 148.53, 323.15 163.56 C321.3 178.59, 316.82 193.78, 310.16 207.69 C303.49 221.59, 293.83 235.83, 283.15 247 C272.47 258.17, 260.16 267.2, 246.06 274.7 C231.96 282.19, 215.12 288.45, 198.56 291.97 C182 295.48, 163.39 297.01, 146.69 295.79 C129.98 294.57, 113.49 290.94, 98.33 284.66 C83.18 278.37, 68.3 268.52, 55.76 258.09 C43.21 247.66, 31.56 235.21, 23.05 222.1 C14.54 208.99, 8.33 193.99, 4.71 179.45 C1.09 164.92, -0.28 150.09, 1.31 134.87 C2.9 119.66, 7.51 102.09, 14.26 88.15 C21.01 74.21, 30.67 62.53, 41.79 51.23 C52.91 39.92, 66.77 28.52, 80.99 20.32 C95.2 12.12, 110.79 5.32, 127.08 2.05 C143.38 -1.22, 170.09 0.56, 178.75 0.7 C187.41 0.84, 179.21 0.22, 179.05 2.89" stroke="#1e1e1e" stroke-width="4" fill="none"></path></g><g transform="translate(1334.8265933696857 242.40980803674265) rotate(0 90.2685546875 16.099999999999994)"><text x="90.2685546875" y="0" font-family="Helvetica, Segoe UI Emoji" font-size="28px" fill="#1e1e1e" text-anchor="middle" style="white-space: pre;" direction="ltr" dominant-baseline="text-before-edge">research repo </text></g><g stroke-linecap="round" transform="translate(741.2499999999998 298.125) rotate(0 121.875 118.125)"><path d="M71.23 10.47 C82.42 3.31, 98.4 0.74, 112.51 -0.12 C126.61 -0.98, 142.4 1.63, 155.85 5.3 C169.3 8.97, 181.98 14.27, 193.21 21.9 C204.44 29.52, 215.58 39.98, 223.22 51.06 C230.86 62.14, 235.9 75.26, 239.07 88.36 C242.24 101.46, 243.41 116.17, 242.25 129.67 C241.09 143.18, 237.95 157.21, 232.11 169.39 C226.28 181.56, 217.17 193.28, 207.25 202.7 C197.33 212.12, 185.41 220.26, 172.61 225.89 C159.8 231.52, 144.35 235.58, 130.44 236.47 C116.54 237.36, 102.57 234.96, 89.16 231.21 C75.75 227.47, 61.23 221.63, 49.98 213.99 C38.74 206.36, 29.46 196.71, 21.68 185.42 C13.91 174.13, 6.75 159.37, 3.33 146.24 C-0.09 133.11, -0.22 119.79, 1.17 106.64 C2.56 93.48, 5.73 79.65, 11.68 67.32 C17.63 54.99, 24.02 43.25, 36.87 32.67 C49.72 22.09, 76.93 8.8, 88.78 3.83 C100.63 -1.15, 107.34 0.7, 107.99 2.82 M107.63 -0.35 C120.28 -3.58, 136.21 1.14, 149.86 4.52 C163.5 7.9, 177.77 12.89, 189.5 19.93 C201.24 26.98, 212.14 35.91, 220.29 46.77 C228.45 57.62, 234.72 72.12, 238.44 85.06 C242.15 98, 243.39 111.17, 242.61 124.38 C241.83 137.6, 238.91 151.89, 233.76 164.35 C228.61 176.82, 221.08 189.36, 211.72 199.17 C202.36 208.98, 190.23 217, 177.6 223.21 C164.97 229.42, 149.91 235.01, 135.95 236.43 C121.99 237.86, 107.53 234.8, 93.83 231.76 C80.13 228.73, 65.29 225.2, 53.74 218.2 C42.19 211.21, 32.6 200.93, 24.54 189.77 C16.49 178.61, 9.51 164.42, 5.41 151.23 C1.32 138.05, -0.72 123.89, -0.05 110.67 C0.61 97.45, 4.02 84.37, 9.38 71.9 C14.74 59.44, 22.62 45.52, 32.09 35.88 C41.57 26.23, 53.81 20.05, 66.23 14.05 C78.65 8.04, 99.53 1.64, 106.62 -0.16 C113.72 -1.95, 108.19 1.1, 108.8 3.29" stroke="none" stroke-width="0" fill="#b2f2bb"></path><path d="M134.57 1.47 C147.9 0.84, 163.36 6.06, 175.87 11.98 C188.39 17.89, 199.97 27.19, 209.66 36.97 C219.35 46.76, 228.27 58.45, 234.02 70.7 C239.77 82.94, 243.48 97.1, 244.16 110.45 C244.83 123.8, 242.09 137.9, 238.05 150.79 C234.01 163.68, 228.02 177.03, 219.91 187.78 C211.8 198.54, 200.94 207.73, 189.41 215.31 C177.88 222.89, 164.06 229.87, 150.74 233.26 C137.42 236.65, 123.39 237.11, 109.49 235.66 C95.6 234.21, 79.8 230.55, 67.37 224.58 C54.94 218.62, 44.44 209.52, 34.92 199.88 C25.4 190.23, 16.1 178.87, 10.25 166.7 C4.4 154.54, 0.62 140.32, -0.18 126.86 C-0.98 113.4, 1.5 99.01, 5.44 85.97 C9.37 72.92, 15.33 59.7, 23.41 48.59 C31.5 37.48, 42.39 26.76, 53.94 19.33 C65.48 11.89, 77.99 6.89, 92.66 3.96 C107.33 1.03, 132.58 1.54, 141.97 1.73 C151.37 1.93, 149.23 3.13, 149.03 5.15 M103.73 2.34 C116.12 -1.47, 130.65 1.26, 144.07 3.64 C157.49 6.01, 172.01 10.01, 184.27 16.59 C196.52 23.16, 208.74 32.42, 217.57 43.09 C226.4 53.77, 233.09 67.55, 237.25 80.63 C241.41 93.71, 242.82 108.07, 242.53 121.59 C242.23 135.12, 240.13 149.23, 235.47 161.8 C230.81 174.37, 223.79 186.89, 214.58 197.02 C205.37 207.15, 192.68 216.11, 180.21 222.57 C167.75 229.03, 153.52 233.65, 139.8 235.77 C126.07 237.89, 111.5 237.86, 97.88 235.28 C84.25 232.7, 69.72 227.43, 58.07 220.28 C46.42 213.14, 36.63 202.88, 27.97 192.42 C19.32 181.97, 10.94 170.41, 6.13 157.57 C1.32 144.73, -1.33 129.01, -0.91 115.38 C-0.49 101.75, 3.29 88.46, 8.65 75.78 C14.01 63.1, 22.09 49.68, 31.28 39.29 C40.47 28.9, 51.8 19.62, 63.78 13.45 C75.76 7.28, 96.34 3.95, 103.13 2.26 C109.93 0.57, 104.18 1.52, 104.57 3.31" stroke="#2f9e44" stroke-width="4" fill="none"></path></g><g transform="translate(794.4571032303893 351.8230114723391) rotate(0 68.4892578125 64.39999999999999)"><text x="68.4892578125" y="0" font-family="Helvetica, Segoe UI Emoji" font-size="28px" fill="#2f9e44" text-anchor="middle" style="white-space: pre;" direction="ltr" dominant-baseline="text-before-edge">fake</text><text x="68.4892578125" y="32.199999999999996" font-family="Helvetica, Segoe UI Emoji" font-size="28px" fill="#2f9e44" text-anchor="middle" style="white-space: pre;" direction="ltr" dominant-baseline="text-before-edge">local</text><text x="68.4892578125" y="64.39999999999999" font-family="Helvetica, Segoe UI Emoji" font-size="28px" fill="#2f9e44" text-anchor="middle" style="white-space: pre;" direction="ltr" dominant-baseline="text-before-edge">data</text><text x="68.4892578125" y="96.6" font-family="Helvetica, Segoe UI Emoji" font-size="28px" fill="#2f9e44" text-anchor="middle" style="white-space: pre;" direction="ltr" dominant-baseline="text-before-edge">warehouse</text></g><g stroke-linecap="round" transform="translate(736.8749999999998 10) rotate(0 121.875 118.125)"><path d="M137.52 1.41 C150.76 1.37, 165.28 7.21, 177.56 13.22 C189.84 19.23, 201.88 27.63, 211.19 37.47 C220.49 47.3, 227.85 59.53, 233.37 72.21 C238.89 84.89, 243.36 99.94, 244.29 113.54 C245.22 127.13, 243.23 141.07, 238.96 153.77 C234.7 166.46, 227.13 179.18, 218.69 189.7 C210.26 200.23, 199.9 209.55, 188.33 216.93 C176.75 224.32, 162.93 231.07, 149.25 234.01 C135.57 236.96, 120.09 236.38, 106.27 234.6 C92.46 232.83, 78.85 229.51, 66.36 223.35 C53.88 217.18, 40.97 207.68, 31.35 197.62 C21.73 187.56, 13.86 175.49, 8.64 162.99 C3.42 150.49, 0.69 136.05, 0.04 122.61 C-0.61 109.17, 0.67 95.13, 4.75 82.35 C8.83 69.56, 15.81 56.64, 24.53 45.91 C33.26 35.18, 45.24 25.06, 57.1 17.94 C68.97 10.82, 81.69 5.78, 95.72 3.18 C109.75 0.58, 132.85 2.21, 141.28 2.35 C149.72 2.5, 146.58 2.05, 146.34 4.03 M85.9 3.87 C97.74 -1.74, 113.44 -0.46, 127.21 0.3 C140.97 1.05, 155.75 3.26, 168.46 8.4 C181.18 13.54, 193.19 21.87, 203.51 31.15 C213.82 40.43, 223.9 52.01, 230.35 64.08 C236.79 76.14, 240.69 90.36, 242.2 103.53 C243.71 116.71, 242.58 130.01, 239.41 143.15 C236.24 156.28, 230.57 171.05, 223.16 182.36 C215.75 193.66, 205.66 203.09, 194.97 210.98 C184.27 218.88, 172.29 225.8, 158.98 229.75 C145.67 233.7, 128.94 234.92, 115.1 234.68 C101.26 234.45, 88.66 233.47, 75.94 228.34 C63.22 223.21, 49.02 213.47, 38.78 203.9 C28.54 194.34, 20.53 182.74, 14.48 170.95 C8.43 159.16, 4.57 146.19, 2.49 133.17 C0.41 120.14, -0.97 105.81, 2 92.78 C4.97 79.76, 12.59 66.58, 20.32 55.02 C28.06 43.46, 37.69 31.87, 48.41 23.42 C59.14 14.97, 78.13 7.09, 84.66 4.31 C91.19 1.53, 86.6 4.57, 87.58 6.75" stroke="none" stroke-width="0" fill="#ffd8a8"></path><path d="M97.24 3.46 C109.69 -1.14, 125.52 -1.16, 139.16 0.62 C152.8 2.4, 166.81 7.8, 179.06 14.14 C191.31 20.48, 203.51 28.54, 212.69 38.67 C221.87 48.79, 228.98 62.4, 234.15 74.89 C239.32 87.38, 243.16 100.44, 243.7 113.62 C244.24 126.81, 241.6 140.98, 237.4 153.98 C233.2 166.98, 226.95 180.78, 218.52 191.64 C210.08 202.5, 198.64 212.07, 186.79 219.15 C174.95 226.23, 161.24 231.43, 147.45 234.12 C133.65 236.82, 117.74 237.25, 104.03 235.32 C90.32 233.4, 77.3 229.06, 65.17 222.59 C53.04 216.12, 40.59 206.62, 31.27 196.52 C21.95 186.42, 14.56 174.5, 9.23 162 C3.9 149.5, -0.17 134.79, -0.71 121.51 C-1.25 108.22, 1.64 94.97, 5.99 82.3 C10.34 69.64, 16.97 56.36, 25.37 45.52 C33.77 34.68, 43.09 24.8, 56.38 17.28 C69.67 9.75, 95.41 2.86, 105.1 0.37 C114.8 -2.13, 114.3 0.38, 114.55 2.29 M147.88 4.22 C161.36 5.35, 177.3 13.22, 189.28 20.45 C201.25 27.69, 211.37 36.89, 219.71 47.63 C228.04 58.36, 235.14 72.17, 239.3 84.86 C243.45 97.56, 245.42 110.76, 244.64 123.8 C243.85 136.85, 240.37 150.58, 234.58 163.13 C228.78 175.68, 219.21 189.27, 209.86 199.11 C200.51 208.94, 190.64 216.29, 178.49 222.14 C166.34 228, 151.16 232.38, 136.95 234.25 C122.74 236.12, 106.6 235.99, 93.24 233.38 C79.87 230.76, 68.08 225.98, 56.77 218.56 C45.47 211.14, 33.98 199.61, 25.38 188.86 C16.78 178.11, 9.29 166.82, 5.19 154.07 C1.09 141.31, 0.24 125.91, 0.76 112.32 C1.28 98.72, 2.91 84.95, 8.31 72.5 C13.71 60.05, 23.64 47.66, 33.16 37.61 C42.69 27.57, 53.15 18.34, 65.45 12.2 C77.75 6.07, 92.84 2.24, 106.95 0.79 C121.06 -0.67, 143.32 2.93, 150.11 3.48 C156.89 4.03, 148.23 2.32, 147.65 4.1" stroke="#f08c00" stroke-width="4" fill="none"></path></g><g transform="translate(790.0821032303893 79.79801147233906) rotate(0 68.4892578125 48.3)"><text x="68.4892578125" y="0" font-family="Helvetica, Segoe UI Emoji" font-size="28px" fill="#f08c00" text-anchor="middle" style="white-space: pre;" direction="ltr" dominant-baseline="text-before-edge">aws</text><text x="68.4892578125" y="32.199999999999996" font-family="Helvetica, Segoe UI Emoji" font-size="28px" fill="#f08c00" text-anchor="middle" style="white-space: pre;" direction="ltr" dominant-baseline="text-before-edge">data</text><text x="68.4892578125" y="64.39999999999999" font-family="Helvetica, Segoe UI Emoji" font-size="28px" fill="#f08c00" text-anchor="middle" style="white-space: pre;" direction="ltr" dominant-baseline="text-before-edge">warehouse</text></g><g stroke-linecap="round" transform="translate(1076.2499999999998 206.875) rotate(0 51.875 48.75)"><path d="M65.34 13.67 L95.79 39.63 L101.43 49.44 L97.97 52.66 L90.92 60.59 L59.67 89.53 L51.74 96.4 L42.68 87.51 L12.66 60.09 L4.4 53.98 L1.49 48.19 L7.74 42.44 L49.65 2.58 L53.03 3.48 L65.29 12.94" stroke="none" stroke-width="0" fill="#e9ecef"></path><path d="M65 12.25 M65 12.25 C74.36 17.6, 80.85 25.48, 90.75 36.75 M65 12.25 C74.51 22.11, 86.52 32.78, 90.75 36.75 M90.75 36.75 C103.07 50.61, 102.7 47.6, 90.75 61.25 M90.75 36.75 C103.63 47.11, 103.24 47.64, 90.75 61.25 M90.75 61.25 C82.07 71.36, 72.22 79.71, 65 85.25 M90.75 61.25 C82.34 69.68, 71.98 78.52, 65 85.25 M65 85.25 C51.85 98.56, 51.78 98.41, 39 85.25 M65 85.25 C51.64 97.95, 52.78 98.29, 39 85.25 M39 85.25 C32.36 78.7, 25.69 75.58, 13 61.25 M39 85.25 C34.48 81.26, 27.8 74.9, 13 61.25 M13 61.25 C-1.97 49.62, 1.43 47.59, 13 36.75 M13 61.25 C-2.07 49.74, 1.78 49.92, 13 36.75 M13 36.75 C20.54 30.44, 30.01 20.55, 39 12.25 M13 36.75 C17.92 32.51, 23.18 26.98, 39 12.25 M39 12.25 C53.22 0.83, 50.01 0.86, 65 12.25 M39 12.25 C52.5 -1.3, 49.87 -0.73, 65 12.25" stroke="#1e1e1e" stroke-width="4" fill="none"></path></g><g stroke-linecap="round"><g transform="translate(1091.2499999999998 285.625) rotate(0 -52.2734000494936 30.075806086184453)"><path d="M1.18 -0.41 C-16.39 9.5, -87.24 50.35, -105.28 60.62 M0.34 -1.67 C-17.31 8.9, -88.23 51.13, -105.72 61.82" stroke="#1e1e1e" stroke-width="4" fill="none"></path></g><g transform="translate(1091.2499999999998 285.625) rotate(0 -52.2734000494936 30.075806086184453)"><path d="M-87.55 40.1 C-93.51 44.47, -98.38 51.41, -106.16 60.64 M-86.78 39.34 C-93.66 47.5, -99.44 54.56, -105.21 62.37" stroke="#1e1e1e" stroke-width="4" fill="none"></path></g><g transform="translate(1091.2499999999998 285.625) rotate(0 -52.2734000494936 30.075806086184453)"><path d="M-76.96 57.68 C-86.36 56.74, -94.48 58.26, -106.16 60.64 M-76.2 56.92 C-86.87 58.95, -96.34 59.88, -105.21 62.37" stroke="#1e1e1e" stroke-width="4" fill="none"></path></g></g><mask></mask><g stroke-linecap="round"><g transform="translate(1099.9999999999998 218.125) rotate(0 -51.51761433257252 -20.739463032959023)"><path d="M-0.44 -0.56 C-17.77 -7.45, -87.17 -34.57, -104.57 -41.59 M1.54 1.76 C-15.36 -5.44, -84.95 -36.03, -102.29 -43.24" stroke="#1e1e1e" stroke-width="4" fill="none"></path></g><g transform="translate(1099.9999999999998 218.125) rotate(0 -51.51761433257252 -20.739463032959023)"><path d="M-73.27 -42.91 C-78.34 -43.89, -87.74 -40.9, -100.51 -41.57 M-72.03 -40.83 C-81.01 -43.19, -87.96 -41.97, -101.89 -42.96" stroke="#1e1e1e" stroke-width="4" fill="none"></path></g><g transform="translate(1099.9999999999998 218.125) rotate(0 -51.51761433257252 -20.739463032959023)"><path d="M-81.37 -24.06 C-84.37 -29.73, -91.73 -31.48, -100.51 -41.57 M-80.12 -21.98 C-86.86 -29.27, -91.65 -33.07, -101.89 -42.96" stroke="#1e1e1e" stroke-width="4" fill="none"></path></g></g><mask></mask><g stroke-linecap="round"><g transform="translate(1256.2499999999998 254.375) rotate(0 -29.755124791790763 -0.35496991798282096)"><path d="M0.93 0.48 C-8.84 0.22, -49.47 -0.99, -59.67 -1.19 M-0.04 -0.31 C-9.84 -0.51, -50.26 -0.36, -60.44 -0.28" stroke="#1e1e1e" stroke-width="4" fill="none"></path></g><g transform="translate(1256.2499999999998 254.375) rotate(0 -29.755124791790763 -0.35496991798282096)"><path d="M-31.5 -10.13 C-40.16 -8.68, -45.31 -4.42, -60.72 -0.46 M-32.93 -9.72 C-39.32 -7.8, -43.8 -5.87, -61.43 0.15" stroke="#1e1e1e" stroke-width="4" fill="none"></path></g><g transform="translate(1256.2499999999998 254.375) rotate(0 -29.755124791790763 -0.35496991798282096)"><path d="M-31.39 10.39 C-40.14 7.53, -45.32 7.48, -60.72 -0.46 M-32.82 10.8 C-39.28 8.3, -43.78 5.8, -61.43 0.15" stroke="#1e1e1e" stroke-width="4" fill="none"></path></g></g><mask></mask><g stroke-linecap="round" transform="translate(869.9999999999998 2016.875) rotate(0 291.25 136.25)"><path d="M33.93 1 L549.35 -0.7 L559.11 -1.33 L568.06 2.53 L577.68 12.04 L580.9 18.74 L583.39 32.27 L582.41 239.04 L582.09 248.92 L577.75 258.94 L568.72 269.47 L562.66 270.38 L548.83 271.79 L30.46 272.18 L23.03 271.16 L11.59 267.08 L3.57 259.27 L1.58 253.71 L1.75 241.72 L-0.97 24.13 L2.49 18 L7.65 8.29 L17.3 0.04 L33.76 -0.44" stroke="none" stroke-width="0" fill="#e9ecef"></path><path d="M32 0 M32 0 C142.76 -0.93, 252.76 -0.93, 550.5 0 M32 0 C170.8 -1.08, 310.36 -1.21, 550.5 0 M550.5 0 C572.15 -1.93, 583.6 10.27, 582.5 32 M550.5 0 C573.73 2.28, 584.44 8.86, 582.5 32 M582.5 32 C584.24 113.69, 582.62 193.32, 582.5 240.5 M582.5 32 C581.28 96.06, 582.05 160.61, 582.5 240.5 M582.5 240.5 C583.9 259.91, 573.23 271.68, 550.5 272.5 M582.5 240.5 C580.39 260.58, 569.65 273.74, 550.5 272.5 M550.5 272.5 C437.64 270.89, 323 271.31, 32 272.5 M550.5 272.5 C385.21 270.89, 220.43 270.68, 32 272.5 M32 272.5 C10.56 273.8, 1.69 261.21, 0 240.5 M32 272.5 C9.97 271.1, 1.64 261.4, 0 240.5 M0 240.5 C-0.23 188.56, -0.99 138.07, 0 32 M0 240.5 C-1.15 193.76, -0.08 147.51, 0 32 M0 32 C0.84 12.15, 9.49 -0.88, 32 0 M0 32 C0.51 8.75, 12.31 -0.94, 32 0" stroke="#1e1e1e" stroke-width="4" fill="none"></path></g><g transform="translate(1123.1191406249998 2137.025) rotate(0 38.130859375 16.100000000000023)"><text x="38.130859375" y="0" font-family="Helvetica, Segoe UI Emoji" font-size="28px" fill="#1e1e1e" text-anchor="middle" style="white-space: pre;" direction="ltr" dominant-baseline="text-before-edge">Model</text></g><g stroke-linecap="round"><g transform="translate(509.9999999999998 2150.625) rotate(0 168.1759752962738 0.19393564727158719)"><path d="M-0.4 -0.94 C55.84 -0.99, 280.73 -0.22, 336.76 -0.2 M1.58 1.17 C57.77 1.31, 280.55 1.42, 336.07 1.24" stroke="#1e1e1e" stroke-width="4" fill="none"></path></g><g transform="translate(509.9999999999998 2150.625) rotate(0 168.1759752962738 0.19393564727158719)"><path d="M306.32 12.37 C314.38 8.29, 320.15 8.23, 334.46 2.07 M308.12 10.69 C319.21 7.39, 328.11 4.92, 335.76 1.37" stroke="#1e1e1e" stroke-width="4" fill="none"></path></g><g transform="translate(509.9999999999998 2150.625) rotate(0 168.1759752962738 0.19393564727158719)"><path d="M306.3 -8.15 C314.37 -7.27, 320.15 -2.37, 334.46 2.07 M308.1 -9.83 C319.08 -5.45, 327.98 -0.25, 335.76 1.37" stroke="#1e1e1e" stroke-width="4" fill="none"></path></g></g><mask></mask><g stroke-linecap="round"><g transform="translate(1468.0740247037259 2160.4310643527288) rotate(0 168.43328856769017 0.545223459605154)"><path d="M-0.75 0.32 C55.02 0.34, 279.07 0.06, 335.37 0.06 M1.06 -0.56 C57.14 -0.33, 281.68 1.84, 337.61 1.64" stroke="#1e1e1e" stroke-width="4" fill="none"></path></g><g transform="translate(1468.0740247037259 2160.4310643527288) rotate(0 168.43328856769017 0.545223459605154)"><path d="M309.91 10.31 C319.75 9.57, 330.49 5.24, 337.51 0.54 M310.18 11.86 C319.52 8.56, 329.53 4.86, 336.94 1.71" stroke="#1e1e1e" stroke-width="4" fill="none"></path></g><g transform="translate(1468.0740247037259 2160.4310643527288) rotate(0 168.43328856769017 0.545223459605154)"><path d="M309.99 -10.21 C319.79 -3.5, 330.51 -0.37, 337.51 0.54 M310.26 -8.66 C319.66 -4.7, 329.64 -1.13, 336.94 1.71" stroke="#1e1e1e" stroke-width="4" fill="none"></path></g></g><mask></mask><g transform="translate(628.8623046874998 2096.875) rotate(0 31.1376953125 16.100000000000023)"><text x="31.1376953125" y="0" font-family="Helvetica, Segoe UI Emoji" font-size="28px" fill="#1e1e1e" text-anchor="middle" style="white-space: pre;" direction="ltr" dominant-baseline="text-before-edge">Input</text></g><g transform="translate(1586.7226562499998 2109.525) rotate(0 42.02734375 16.100000000000023)"><text x="42.02734375" y="0" font-family="Helvetica, Segoe UI Emoji" font-size="28px" fill="#1e1e1e" text-anchor="middle" style="white-space: pre;" direction="ltr" dominant-baseline="text-before-edge">Output</text></g><g transform="translate(1048.6416015624998 2468.125) rotate(0 93.37890625 48.299999999999955)"><text x="0" y="0" font-family="Helvetica, Segoe UI Emoji" font-size="28px" fill="#f08c00" text-anchor="start" style="white-space: pre;" direction="ltr" dominant-baseline="text-before-edge">ModelSchema:</text><text x="0" y="32.199999999999996" font-family="Helvetica, Segoe UI Emoji" font-size="28px" fill="#f08c00" text-anchor="start" style="white-space: pre;" direction="ltr" dominant-baseline="text-before-edge">    - Input</text><text x="0" y="64.39999999999999" font-family="Helvetica, Segoe UI Emoji" font-size="28px" fill="#f08c00" text-anchor="start" style="white-space: pre;" direction="ltr" dominant-baseline="text-before-edge">    - Output</text></g><g stroke-linecap="round"><g transform="translate(1011.2499999999998 2463.125) rotate(0 -166.10091047547752 -163.29639165523463)"><path d="M0.16 -0.28 C-55.41 -54.33, -277.26 -270.52, -332.37 -324.47 M-1.21 -1.47 C-56.52 -55.87, -275.3 -272.27, -330.24 -326.31" stroke="#f08c00" stroke-width="4" fill="none"></path></g><g transform="translate(1011.2499999999998 2463.125) rotate(0 -166.10091047547752 -163.29639165523463)"><path d="M-303.43 -315.68 C-312.64 -317.33, -322.36 -321.87, -330.32 -327.61 M-302.23 -313.61 C-310.9 -316.77, -320.01 -322.66, -330.93 -326.71" stroke="#f08c00" stroke-width="4" fill="none"></path></g><g transform="translate(1011.2499999999998 2463.125) rotate(0 -166.10091047547752 -163.29639165523463)"><path d="M-317.85 -301.07 C-321.44 -308.41, -325.58 -318.61, -330.32 -327.61 M-316.64 -299 C-320.7 -306.84, -325.21 -317.39, -330.93 -326.71" stroke="#f08c00" stroke-width="4" fill="none"></path></g></g><mask></mask><g stroke-linecap="round"><g transform="translate(1294.9999999999998 2458.125) rotate(0 162.56908005215223 -156.03680255748338)"><path d="M-0.83 -0.48 C53.43 -52.23, 271.44 -259.66, 325.96 -311.59 M0.94 -1.78 C54.98 -53.26, 270.76 -258.67, 324.87 -310.23" stroke="#f08c00" stroke-width="4" fill="none"></path></g><g transform="translate(1294.9999999999998 2458.125) rotate(0 162.56908005215223 -156.03680255748338)"><path d="M310.73 -283.84 C315.67 -292.2, 319.38 -302.07, 326.18 -308.32 M312.18 -282.73 C316.72 -293.02, 320.66 -302.57, 325.55 -310.48" stroke="#f08c00" stroke-width="4" fill="none"></path></g><g transform="translate(1294.9999999999998 2458.125) rotate(0 162.56908005215223 -156.03680255748338)"><path d="M296.57 -298.7 C306.12 -301.98, 314.58 -306.88, 326.18 -308.32 M298.03 -297.59 C307.97 -302.18, 317.23 -306.14, 325.55 -310.48" stroke="#f08c00" stroke-width="4" fill="none"></path></g></g><mask></mask><g stroke-linecap="round"><g transform="translate(759.7204742066516 1594.322312348986) rotate(0 -32.55657319310404 -1.2472512334728663)"><path d="M-0.89 -0.72 C-11.73 -1.38, -54.09 -3.41, -64.75 -4.01 M0.84 1.52 C-10.22 1.03, -54.82 -1.91, -65.95 -2.72" stroke="#1e1e1e" stroke-width="4" fill="none"></path></g><g transform="translate(759.7204742066516 1594.322312348986) rotate(0 -32.55657319310404 -1.2472512334728663)"><path d="M-38.33 -11.85 C-47.21 -9.57, -56.99 -7.87, -66.45 -2.48 M-37.94 -11.47 C-43.18 -8.17, -51.89 -7.13, -65.9 -3.44" stroke="#1e1e1e" stroke-width="4" fill="none"></path></g><g transform="translate(759.7204742066516 1594.322312348986) rotate(0 -32.55657319310404 -1.2472512334728663)"><path d="M-39.73 8.62 C-48.15 4.32, -57.47 -0.57, -66.45 -2.48 M-39.34 9.01 C-44.25 7.35, -52.61 3.44, -65.9 -3.44" stroke="#1e1e1e" stroke-width="4" fill="none"></path></g></g><mask></mask><g stroke-linecap="round" transform="translate(192.579655162241 2941.23797590565) rotate(0 88 47)"><path d="M23.5 0 L152.5 0 L158.01 0.37 L166.82 3.3 L170.13 5.88 L172.7 9.18 L175.63 17.99 L176 70.5 L175.63 76.01 L172.7 84.82 L170.13 88.13 L166.82 90.7 L162.78 92.53 L152.5 94 L23.5 94 L17.99 93.63 L9.18 90.7 L5.88 88.13 L3.3 84.82 L0.37 76.01 L0.37 17.99 L3.3 9.18 L5.88 5.88 L9.18 3.3 L17.99 0.37 L23.5 0" stroke="none" stroke-width="0" fill="#e3fafc"></path><path d="M23.5 0 M23.5 0 C73 0, 122.49 0, 152.5 0 M23.5 0 C54.11 0, 84.72 0, 152.5 0 M152.5 0 C168.17 0, 176 7.83, 176 23.5 M152.5 0 C168.17 0, 176 7.83, 176 23.5 M176 23.5 C176 35.08, 176 46.66, 176 70.5 M176 23.5 C176 39.27, 176 55.04, 176 70.5 M176 70.5 C176 86.17, 168.17 94, 152.5 94 M176 70.5 C176 86.17, 168.17 94, 152.5 94 M152.5 94 C118.69 94, 84.89 94, 23.5 94 M152.5 94 C125.54 94, 98.58 94, 23.5 94 M23.5 94 C7.83 94, 0 86.17, 0 70.5 M23.5 94 C7.83 94, 0 86.17, 0 70.5 M0 70.5 C0 53.45, 0 36.41, 0 23.5 M0 70.5 C0 55.44, 0 40.39, 0 23.5 M0 23.5 C0 7.83, 7.83 0, 23.5 0 M0 23.5 C0 7.83, 7.83 0, 23.5 0" stroke="#0c8599" stroke-width="2" fill="none"></path></g><g transform="translate(248.939030162241 2966.63797590565) rotate(0 31.640625 21.59999999999991)"><text x="31.640625" y="0" font-family="Cascadia, Segoe UI Emoji" font-size="36px" fill="#0c8599" text-anchor="middle" style="white-space: pre;" direction="ltr" dominant-baseline="text-before-edge">IRT</text></g><g stroke-linecap="round"><g stroke-opacity="0" fill-opacity="0" transform="translate(1041.7237519526375 3331.2506748230385) rotate(0 78.6647085031691 -1.7227485185383102)"><path d="M1.1 0.42 C27.18 -0.19, 131.21 -3.41, 157.11 -3.86 M0.22 -0.41 C26.07 -0.86, 129.6 -2.08, 156.06 -2.71" stroke="#1e1e1e" stroke-width="4" fill="none"></path></g><g stroke-opacity="0" fill-opacity="0" transform="translate(1041.7237519526375 3331.2506748230385) rotate(0 78.6647085031691 -1.7227485185383102)"><path d="M128.74 7.7 C136.74 2.6, 149.23 1.9, 154.78 -2.84 M128.19 8.81 C139.49 3.37, 150.05 -0.95, 155.54 -1.79" stroke="#1e1e1e" stroke-width="4" fill="none"></path></g><g stroke-opacity="0" fill-opacity="0" transform="translate(1041.7237519526375 3331.2506748230385) rotate(0 78.6647085031691 -1.7227485185383102)"><path d="M128.39 -12.81 C136.48 -10.67, 149.09 -4.13, 154.78 -2.84 M127.84 -11.71 C139.17 -8.94, 149.87 -5.06, 155.54 -1.79" stroke="#1e1e1e" stroke-width="4" fill="none"></path></g></g><mask></mask><g stroke-linecap="round" transform="translate(435.5866314459822 2940.3367827416314) rotate(0 88 47)"><path d="M23.5 0 L152.5 0 L158.01 0.37 L166.82 3.3 L170.13 5.88 L172.7 9.18 L175.63 17.99 L176 70.5 L175.63 76.01 L172.7 84.82 L170.13 88.13 L166.82 90.7 L162.78 92.53 L152.5 94 L23.5 94 L17.99 93.63 L9.18 90.7 L5.88 88.13 L3.3 84.82 L0.37 76.01 L0.37 17.99 L3.3 9.18 L5.88 5.88 L9.18 3.3 L17.99 0.37 L23.5 0" stroke="none" stroke-width="0" fill="#fff9db"></path><path d="M23.5 0 M23.5 0 C58.16 0, 92.83 0, 152.5 0 M23.5 0 C69.17 0, 114.84 0, 152.5 0 M152.5 0 C168.17 0, 176 7.83, 176 23.5 M152.5 0 C168.17 0, 176 7.83, 176 23.5 M176 23.5 C176 37.95, 176 52.4, 176 70.5 M176 23.5 C176 39.09, 176 54.69, 176 70.5 M176 70.5 C176 86.17, 168.17 94, 152.5 94 M176 70.5 C176 86.17, 168.17 94, 152.5 94 M152.5 94 C118.67 94, 84.85 94, 23.5 94 M152.5 94 C123.28 94, 94.05 94, 23.5 94 M23.5 94 C7.83 94, 0 86.17, 0 70.5 M23.5 94 C7.83 94, 0 86.17, 0 70.5 M0 70.5 C0 56.84, 0 43.18, 0 23.5 M0 70.5 C0 52.19, 0 33.89, 0 23.5 M0 23.5 C0 7.83, 7.83 0, 23.5 0 M0 23.5 C0 7.83, 7.83 0, 23.5 0" stroke="#f08c00" stroke-width="2" fill="none"></path></g><g transform="translate(502.4928814459822 2965.7367827416315) rotate(0 21.09375 21.59999999999991)"><text x="21.09375" y="0" font-family="Cascadia, Segoe UI Emoji" font-size="36px" fill="#f08c00" text-anchor="middle" style="white-space: pre;" direction="ltr" dominant-baseline="text-before-edge">CA</text></g><g stroke-linecap="round" transform="translate(695.7856639681651 2924.8794144729873) rotate(0 88 47)"><path d="M23.5 0 L152.5 0 L158.01 0.37 L166.82 3.3 L170.13 5.88 L172.7 9.18 L175.63 17.99 L176 70.5 L175.63 76.01 L172.7 84.82 L170.13 88.13 L166.82 90.7 L162.78 92.53 L152.5 94 L23.5 94 L17.99 93.63 L9.18 90.7 L5.88 88.13 L3.3 84.82 L0.37 76.01 L0.37 17.99 L3.3 9.18 L5.88 5.88 L9.18 3.3 L17.99 0.37 L23.5 0" stroke="none" stroke-width="0" fill="#fff5f5"></path><path d="M23.5 0 M23.5 0 C54.95 0, 86.4 0, 152.5 0 M23.5 0 C53.4 0, 83.3 0, 152.5 0 M152.5 0 C168.17 0, 176 7.83, 176 23.5 M152.5 0 C168.17 0, 176 7.83, 176 23.5 M176 23.5 C176 41.43, 176 59.35, 176 70.5 M176 23.5 C176 36.21, 176 48.92, 176 70.5 M176 70.5 C176 86.17, 168.17 94, 152.5 94 M176 70.5 C176 86.17, 168.17 94, 152.5 94 M152.5 94 C109.51 94, 66.51 94, 23.5 94 M152.5 94 C101.13 94, 49.75 94, 23.5 94 M23.5 94 C7.83 94, 0 86.17, 0 70.5 M23.5 94 C7.83 94, 0 86.17, 0 70.5 M0 70.5 C0 53.4, 0 36.3, 0 23.5 M0 70.5 C0 60.99, 0 51.48, 0 23.5 M0 23.5 C0 7.83, 7.83 0, 23.5 0 M0 23.5 C0 7.83, 7.83 0, 23.5 0" stroke="#e03131" stroke-width="2" fill="none"></path></g><g transform="translate(741.5981639681651 2950.2794144729874) rotate(0 42.1875 21.59999999999991)"><text x="42.1875" y="0" font-family="Cascadia, Segoe UI Emoji" font-size="36px" fill="#e03131" text-anchor="middle" style="white-space: pre;" direction="ltr" dominant-baseline="text-before-edge">Cav2</text></g><g stroke-opacity="0" fill-opacity="0" stroke-linecap="round" transform="translate(171.9315033343198 2858.525380502927) rotate(0 75.99872732083548 105.62534983573755)"><path d="M31.93 0.47 L128.13 -0.76 L137.84 4.58 L145.88 12.25 L149.94 16.89 L152.99 30.68 L153.21 179.6 L148.94 192.49 L145.64 199.64 L140.76 205.83 L134.26 209.16 L121.49 211.09 L32.64 213.03 L17.7 210.38 L14.37 208.59 L5.01 197.25 L0.08 193.63 L-0.94 180.75 L1.41 25.19 L1.01 17.65 L9.56 7.01 L16.56 2.41 L32.74 -1.46" stroke="none" stroke-width="0" fill="#fff5f5"></path><path d="M32 0 M32 0 C59.93 2.54, 90.43 1.81, 120 0 M32 0 C63.42 -0.75, 93.96 -0.27, 120 0 M120 0 C140.11 1, 152.78 9.63, 152 32 M120 0 C140.19 -1.5, 154.3 9.16, 152 32 M152 32 C151.93 63.08, 150.02 94.97, 152 179.25 M152 32 C152.42 72.94, 153.68 113.95, 152 179.25 M152 179.25 C151.09 201.1, 142.19 209.31, 120 211.25 M152 179.25 C153.91 201.28, 140.48 208.96, 120 211.25 M120 211.25 C96.15 209.72, 71.31 209.85, 32 211.25 M120 211.25 C94.07 210.59, 70.32 209.89, 32 211.25 M32 211.25 C9.38 213.14, -1.16 201.14, 0 179.25 M32 211.25 C12.55 211.45, -0.52 200.01, 0 179.25 M0 179.25 C1.42 136.93, 0.59 96.45, 0 32 M0 179.25 C0.08 136.62, -1.87 92.45, 0 32 M0 32 C0.98 9.23, 10.91 -0.45, 32 0 M0 32 C0.52 12.2, 10.85 -1, 32 0" stroke="#e03131" stroke-width="4" fill="none"></path></g><g transform="translate(223.45606422980154 2860.220468323831) rotate(0 65.625 9.599999999999909)"><text x="0" y="0" font-family="Cascadia, Segoe UI Emoji" font-size="16px" fill="#868e96" text-anchor="start" style="white-space: pre;" direction="ltr" dominant-baseline="text-before-edge">infrastructure</text></g><g transform="translate(464.4022015579176 2860.5184067044106) rotate(0 65.625 9.599999999999909)"><text x="0" y="0" font-family="Cascadia, Segoe UI Emoji" font-size="16px" fill="#868e96" text-anchor="start" style="white-space: pre;" direction="ltr" dominant-baseline="text-before-edge">infrastructure</text></g><g transform="translate(722.0250060353258 2859.230292682023) rotate(0 65.625 9.599999999999909)"><text x="0" y="0" font-family="Cascadia, Segoe UI Emoji" font-size="16px" fill="#868e96" text-anchor="start" style="white-space: pre;" direction="ltr" dominant-baseline="text-before-edge">infrastructure</text></g><g stroke-linecap="round" transform="translate(1225.6471011166489 2869.747647663168) rotate(0 88 47)"><path d="M23.5 0 L152.5 0 L158.01 0.37 L166.82 3.3 L170.13 5.88 L172.7 9.18 L175.63 17.99 L176 70.5 L175.63 76.01 L172.7 84.82 L170.13 88.13 L166.82 90.7 L162.78 92.53 L152.5 94 L23.5 94 L17.99 93.63 L9.18 90.7 L5.88 88.13 L3.3 84.82 L0.37 76.01 L0.37 17.99 L3.3 9.18 L5.88 5.88 L9.18 3.3 L17.99 0.37 L23.5 0" stroke="none" stroke-width="0" fill="#e3fafc"></path><path d="M23.5 0 M23.5 0 C74.74 0, 125.98 0, 152.5 0 M23.5 0 C60.46 0, 97.42 0, 152.5 0 M152.5 0 C168.17 0, 176 7.83, 176 23.5 M152.5 0 C168.17 0, 176 7.83, 176 23.5 M176 23.5 C176 34.34, 176 45.17, 176 70.5 M176 23.5 C176 41.21, 176 58.91, 176 70.5 M176 70.5 C176 86.17, 168.17 94, 152.5 94 M176 70.5 C176 86.17, 168.17 94, 152.5 94 M152.5 94 C103.48 94, 54.46 94, 23.5 94 M152.5 94 C120.3 94, 88.1 94, 23.5 94 M23.5 94 C7.83 94, 0 86.17, 0 70.5 M23.5 94 C7.83 94, 0 86.17, 0 70.5 M0 70.5 C0 53.73, 0 36.96, 0 23.5 M0 70.5 C0 56.62, 0 42.74, 0 23.5 M0 23.5 C0 7.83, 7.83 0, 23.5 0 M0 23.5 C0 7.83, 7.83 0, 23.5 0" stroke="#0c8599" stroke-width="2" fill="none"></path></g><g transform="translate(1282.0064761166489 2895.1476476631683) rotate(0 31.640625 21.59999999999991)"><text x="31.640625" y="0" font-family="Cascadia, Segoe UI Emoji" font-size="36px" fill="#0c8599" text-anchor="middle" style="white-space: pre;" direction="ltr" dominant-baseline="text-before-edge">IRT</text></g><g stroke-linecap="round" transform="translate(1444.1799109750364 2872.7107965663113) rotate(0 88 47)"><path d="M23.5 0 L152.5 0 L158.01 0.37 L166.82 3.3 L170.13 5.88 L172.7 9.18 L175.63 17.99 L176 70.5 L175.63 76.01 L172.7 84.82 L170.13 88.13 L166.82 90.7 L162.78 92.53 L152.5 94 L23.5 94 L17.99 93.63 L9.18 90.7 L5.88 88.13 L3.3 84.82 L0.37 76.01 L0.37 17.99 L3.3 9.18 L5.88 5.88 L9.18 3.3 L17.99 0.37 L23.5 0" stroke="none" stroke-width="0" fill="#fff9db"></path><path d="M23.5 0 M23.5 0 C49.66 0, 75.81 0, 152.5 0 M23.5 0 C64.05 0, 104.6 0, 152.5 0 M152.5 0 C168.17 0, 176 7.83, 176 23.5 M152.5 0 C168.17 0, 176 7.83, 176 23.5 M176 23.5 C176 40.48, 176 57.47, 176 70.5 M176 23.5 C176 35.03, 176 46.56, 176 70.5 M176 70.5 C176 86.17, 168.17 94, 152.5 94 M176 70.5 C176 86.17, 168.17 94, 152.5 94 M152.5 94 C120.78 94, 89.06 94, 23.5 94 M152.5 94 C125.5 94, 98.51 94, 23.5 94 M23.5 94 C7.83 94, 0 86.17, 0 70.5 M23.5 94 C7.83 94, 0 86.17, 0 70.5 M0 70.5 C0 60.3, 0 50.1, 0 23.5 M0 70.5 C0 56.11, 0 41.72, 0 23.5 M0 23.5 C0 7.83, 7.83 0, 23.5 0 M0 23.5 C0 7.83, 7.83 0, 23.5 0" stroke="#f08c00" stroke-width="2" fill="none"></path></g><g transform="translate(1511.0861609750364 2898.1107965663114) rotate(0 21.09375 21.59999999999991)"><text x="21.09375" y="0" font-family="Cascadia, Segoe UI Emoji" font-size="36px" fill="#f08c00" text-anchor="middle" style="white-space: pre;" direction="ltr" dominant-baseline="text-before-edge">CA</text></g><g stroke-linecap="round" transform="translate(1651.5662685793504 2875.2870246110856) rotate(0 88 47)"><path d="M23.5 0 L152.5 0 L158.01 0.37 L166.82 3.3 L170.13 5.88 L172.7 9.18 L175.63 17.99 L176 70.5 L175.63 76.01 L172.7 84.82 L170.13 88.13 L166.82 90.7 L162.78 92.53 L152.5 94 L23.5 94 L17.99 93.63 L9.18 90.7 L5.88 88.13 L3.3 84.82 L0.37 76.01 L0.37 17.99 L3.3 9.18 L5.88 5.88 L9.18 3.3 L17.99 0.37 L23.5 0" stroke="none" stroke-width="0" fill="#fff5f5"></path><path d="M23.5 0 M23.5 0 C69.33 0, 115.16 0, 152.5 0 M23.5 0 C72.88 0, 122.27 0, 152.5 0 M152.5 0 C168.17 0, 176 7.83, 176 23.5 M152.5 0 C168.17 0, 176 7.83, 176 23.5 M176 23.5 C176 34.54, 176 45.59, 176 70.5 M176 23.5 C176 36.59, 176 49.68, 176 70.5 M176 70.5 C176 86.17, 168.17 94, 152.5 94 M176 70.5 C176 86.17, 168.17 94, 152.5 94 M152.5 94 C106.94 94, 61.38 94, 23.5 94 M152.5 94 C125.3 94, 98.1 94, 23.5 94 M23.5 94 C7.83 94, 0 86.17, 0 70.5 M23.5 94 C7.83 94, 0 86.17, 0 70.5 M0 70.5 C0 53.7, 0 36.9, 0 23.5 M0 70.5 C0 53.94, 0 37.37, 0 23.5 M0 23.5 C0 7.83, 7.83 0, 23.5 0 M0 23.5 C0 7.83, 7.83 0, 23.5 0" stroke="#e03131" stroke-width="2" fill="none"></path></g><g transform="translate(1697.3787685793504 2900.6870246110857) rotate(0 42.1875 21.59999999999991)"><text x="42.1875" y="0" font-family="Cascadia, Segoe UI Emoji" font-size="36px" fill="#e03131" text-anchor="middle" style="white-space: pre;" direction="ltr" dominant-baseline="text-before-edge">Cav2</text></g><g transform="translate(1214.0157474454365 2797.746938238058) rotate(0 295.3125 9.599999999999909)"><text x="0" y="0" font-family="Cascadia, Segoe UI Emoji" font-size="16px" fill="#868e96" text-anchor="start" style="white-space: pre;" direction="ltr" dominant-baseline="text-before-edge">future-proof unified model platform architecture infrastructure</text></g></svg>